<svg width="32" height="32" viewBox="0 0 32 32" fill="none" xmlns="http://www.w3.org/2000/svg">
<path d="M17.312 12V9.31199H14.687V12H17.312ZM17.312 22.688V14.688H14.687V22.688H17.312ZM16 2.68799C19.6667 2.68799 22.8023 3.99032 25.407 6.59499C28.0117 9.19965 29.314 12.3353 29.314 16.002C29.314 19.6687 28.0117 22.8043 25.407 25.409C22.8023 28.0137 19.6667 29.316 16 29.316C12.3333 29.316 9.19766 28.0137 6.593 25.409C3.98833 22.8043 2.686 19.6687 2.686 16.002C2.686 12.3353 3.98833 9.19965 6.593 6.59499C9.19766 3.99032 12.3333 2.68799 16 2.68799Z" fill="black"/>
</svg>
