<svg width="401" height="85" viewBox="0 0 401 85" fill="none" xmlns="http://www.w3.org/2000/svg">
<path d="M86 24.7193V18.0544C86 15.4423 85.2009 13.3259 83.6058 11.702C82.0091 10.0778 79.7751 9.2659 76.9019 9.2659H56.4075C53.6617 9.2659 51.5713 8.38964 50.1346 6.63899C48.6981 4.88675 47.9799 2.67481 47.9799 0H38.1156C38.1156 2.67454 37.3974 4.88675 35.9609 6.63899C34.5245 8.38964 32.4011 9.2659 29.5922 9.2659H9.09782C6.22494 9.2659 3.99068 10.0778 2.39398 11.702C0.799143 13.3259 0 15.4423 0 18.0544V27.7024V33.5085H0.0079596V42.1171C0.0079596 65.7629 19.2941 85 43.0001 85C66.7062 85 85.992 65.7629 85.992 42.1171V33.5085H86V24.7193V24.7193ZM77.1805 42.1171C77.1805 60.9167 61.8471 76.211 42.9999 76.211C24.1526 76.211 8.81923 60.9167 8.81923 42.1171V33.5085H77.1802V42.1171H77.1805Z" fill="#2589BD"/>
<path d="M186.396 83.7155L180.444 64.662H154.087L148.241 83.7155H134L158.869 9H176.299L200.956 83.7155H186.396ZM167.478 21.8451H166.947L157.488 52.5662H177.043L167.478 21.8451Z" fill="#2589BD"/>
<path d="M228.682 85C224.572 85 220.923 84.3221 217.735 82.9662C214.547 81.6103 211.854 79.6479 209.658 77.0789C207.532 74.5099 205.903 71.4413 204.769 67.8732C203.635 64.2338 203.068 60.1662 203.068 55.6704C203.068 51.1746 203.635 47.1427 204.769 43.5746C205.903 40.0066 207.532 36.9737 209.658 34.4761C211.854 31.907 214.547 29.9446 217.735 28.5887C220.923 27.2329 224.572 26.5549 228.682 26.5549C234.279 26.5549 238.885 27.8038 242.498 30.3014C246.182 32.7991 248.839 36.2601 250.469 40.6845L239.31 45.7155C238.672 43.3606 237.468 41.4338 235.696 39.9352C233.996 38.3653 231.658 37.5803 228.682 37.5803C224.856 37.5803 221.986 38.7934 220.073 41.2197C218.231 43.646 217.31 46.8216 217.31 50.7465V60.9155C217.31 64.8404 218.231 68.016 220.073 70.4423C221.986 72.7972 224.856 73.9747 228.682 73.9747C231.941 73.9747 234.456 73.154 236.228 71.5127C237.999 69.8 239.381 67.6948 240.373 65.1972L250.788 70.2282C248.946 75.1521 246.147 78.8629 242.392 81.3606C238.637 83.7869 234.067 85 228.682 85Z" fill="#2589BD"/>
<path d="M281.164 85C277.196 85 273.618 84.3221 270.43 82.9662C267.312 81.6103 264.62 79.6479 262.352 77.0789C260.156 74.5099 258.456 71.4413 257.251 67.8732C256.047 64.2338 255.444 60.1662 255.444 55.6704C255.444 51.1746 256.047 47.1427 257.251 43.5746C258.456 40.0066 260.156 36.9737 262.352 34.4761C264.62 31.907 267.312 29.9446 270.43 28.5887C273.618 27.2329 277.196 26.5549 281.164 26.5549C285.132 26.5549 288.71 27.2329 291.898 28.5887C295.087 29.9446 297.779 31.907 299.975 34.4761C302.243 36.9737 303.979 40.0066 305.183 43.5746C306.388 47.1427 306.99 51.1746 306.99 55.6704C306.99 60.1662 306.388 64.2338 305.183 67.8732C303.979 71.4413 302.243 74.5099 299.975 77.0789C297.779 79.6479 295.087 81.6103 291.898 82.9662C288.71 84.3221 285.132 85 281.164 85ZM281.164 73.9747C284.777 73.9747 287.612 72.8685 289.666 70.6563C291.721 68.4441 292.748 65.1972 292.748 60.9155V50.5324C292.748 46.3221 291.721 43.1108 289.666 40.8986C287.612 38.6864 284.777 37.5803 281.164 37.5803C277.621 37.5803 274.823 38.6864 272.768 40.8986C270.713 43.1108 269.686 46.3221 269.686 50.5324V60.9155C269.686 65.1972 270.713 68.4441 272.768 70.6563C274.823 72.8685 277.621 73.9747 281.164 73.9747Z" fill="#2589BD"/>
<path d="M314.799 83.7155V27.8394H328.403V39.4H328.934C329.288 37.9014 329.82 36.4742 330.528 35.1183C331.308 33.6911 332.3 32.4422 333.504 31.3718C334.709 30.3014 336.126 29.4451 337.755 28.8028C339.456 28.1606 341.404 27.8394 343.601 27.8394H346.577V40.7915H342.325C337.72 40.7915 334.248 41.4695 331.91 42.8254C329.572 44.1812 328.403 46.3934 328.403 49.462V83.7155H314.799Z" fill="#2589BD"/>
<path d="M353.599 83.7155V27.8394H367.203V37.1521H367.734C368.868 34.1549 370.639 31.6573 373.048 29.6592C375.528 27.5897 378.929 26.5549 383.251 26.5549C388.99 26.5549 393.383 28.446 396.43 32.2282C399.477 36.0103 401 41.3981 401 48.3915V83.7155H387.396V49.7831C387.396 45.7869 386.688 42.7897 385.271 40.7915C383.854 38.7934 381.515 37.7944 378.256 37.7944C376.839 37.7944 375.457 38.0085 374.111 38.4366C372.836 38.7934 371.667 39.3643 370.604 40.1493C369.612 40.8629 368.797 41.7906 368.16 42.9324C367.522 44.0028 367.203 45.2873 367.203 46.7859V83.7155H353.599Z" fill="#2589BD"/>
</svg>
