<svg
  aria-hidden="true"
  style="position: absolute; width: 0; height: 0; overflow: hidden;"
  version="1.1"
  xmlns="http://www.w3.org/2000/svg"
  xmlns:xlink="http://www.w3.org/1999/xlink"
>
<defs>
<symbol id="icon-drop_down" viewBox="0 0 32 32">
<path
        d="M8.076 12.617c0.155-0.374 0.519-0.617 0.924-0.617h13.333c0.404 0 0.769 0.244 0.924 0.617s0.069 0.804-0.217 1.090l-6.667 6.667c-0.188 0.188-0.442 0.293-0.707 0.293s-0.52-0.105-0.707-0.293l-6.667-6.667c-0.286-0.286-0.372-0.716-0.217-1.090z"
      />
</symbol>
<symbol id="icon-credit_card" viewBox="0 0 32 32">
<path
        d="M2 9c0-2.209 1.791-4 4-4h20c2.209 0 4 1.791 4 4v14c0 2.209-1.791 4-4 4h-20c-2.209 0-4-1.791-4-4v-14zM6 8c-0.552 0-1 0.448-1 1v2h22v-2c0-0.552-0.448-1-1-1h-20zM5 14v9c0 0.552 0.448 1 1 1h20c0.552 0 1-0.448 1-1v-9h-22z"
      />
</symbol>
<symbol id="icon-sort" viewBox="0 0 32 32">
<path
        d="M3.439 10.63c-0.586-0.586-0.586-1.536 0-2.121l6.069-6.069c0.586-0.586 1.536-0.586 2.121 0l6.069 6.069c0.586 0.586 0.586 1.536 0 2.121s-1.536 0.586-2.121 0l-3.509-3.509v10.541c0 0.828-0.672 1.5-1.5 1.5s-1.5-0.672-1.5-1.5l0-10.54-3.509 3.509c-0.586 0.586-1.536 0.586-2.121 0z"
      />
<path
        d="M13.439 20.532c-0.586 0.586-0.586 1.535 0 2.121l6.069 6.069c0.586 0.586 1.535 0.586 2.121 0l6.069-6.069c0.586-0.586 0.586-1.535 0-2.121s-1.536-0.586-2.121 0l-3.509 3.509v-10.541c0-0.828-0.672-1.5-1.5-1.5s-1.5 0.672-1.5 1.5v10.541l-3.509-3.509c-0.586-0.586-1.536-0.586-2.121 0z"
      />
</symbol>
<symbol id="icon-person_check" viewBox="0 0 32 32">
<path
        d="M12.275 5.5c-2.099 0-3.8 1.701-3.8 3.8s1.701 3.8 3.8 3.8c2.099 0 3.8-1.701 3.8-3.8s-1.701-3.8-3.8-3.8zM5.475 9.3c0-3.756 3.044-6.8 6.8-6.8s6.8 3.044 6.8 6.8-3.044 6.8-6.8 6.8c-3.756 0-6.8-3.044-6.8-6.8zM30.561 10.889c-0.586-0.586-1.535-0.586-2.121 0l-4.239 4.239-1.589-1.589c-0.586-0.586-1.536-0.586-2.121 0s-0.586 1.536 0 2.121l2.65 2.65c0.586 0.586 1.536 0.586 2.121 0l5.3-5.3c0.586-0.586 0.586-1.536 0-2.121zM3.492 20.392c-1.275 1.275-1.992 3.005-1.992 4.808v2.65c0 0.828 0.672 1.5 1.5 1.5s1.5-0.672 1.5-1.5v-2.65c0-1.008 0.4-1.974 1.113-2.687s1.679-1.113 2.687-1.113h7.95c1.008 0 1.974 0.4 2.687 1.113s1.113 1.679 1.113 2.687v2.65c0 0.828 0.672 1.5 1.5 1.5s1.5-0.672 1.5-1.5v-2.65c0-1.803-0.716-3.533-1.992-4.808s-3.005-1.992-4.808-1.992h-7.95c-1.803 0-3.533 0.716-4.808 1.992z"
      />
</symbol>
<symbol id="icon-person" viewBox="0 0 32 32">
<path
        d="M16.275 5.5c-2.099 0-3.8 1.701-3.8 3.8s1.701 3.8 3.8 3.8c2.099 0 3.8-1.701 3.8-3.8s-1.701-3.8-3.8-3.8zM9.475 9.3c0-3.756 3.044-6.8 6.8-6.8s6.8 3.044 6.8 6.8-3.044 6.8-6.8 6.8c-3.756 0-6.8-3.044-6.8-6.8zM7.492 20.392c-1.275 1.275-1.992 3.005-1.992 4.808v2.65c0 0.828 0.672 1.5 1.5 1.5s1.5-0.672 1.5-1.5v-2.65c0-1.008 0.4-1.974 1.113-2.687s1.679-1.113 2.687-1.113h7.95c1.008 0 1.974 0.4 2.687 1.113s1.113 1.679 1.113 2.687v2.65c0 0.828 0.672 1.5 1.5 1.5s1.5-0.672 1.5-1.5v-2.65c0-1.803-0.716-3.533-1.992-4.808s-3.005-1.992-4.808-1.992h-7.95c-1.803 0-3.533 0.716-4.808 1.992z"
      />
</symbol>
<symbol id="icon-person_circle" viewBox="0 0 32 32">
<path
        d="M16 8c2.788 0 5.049 2.268 5.049 5.065s-2.26 5.065-5.049 5.065c-2.788 0-5.049-2.268-5.049-5.065s2.26-5.065 5.049-5.065zM16 11c-1.122 0-2.049 0.915-2.049 2.065s0.926 2.065 2.049 2.065 2.049-0.915 2.049-2.065c0-1.15-0.926-2.065-2.049-2.065z"
      />
<path
        d="M26.253 5.747c-5.663-5.663-14.843-5.663-20.506 0s-5.663 14.844 0 20.506c5.663 5.663 14.843 5.663 20.506 0s5.663-14.844 0-20.506zM7.868 7.868c4.491-4.491 11.772-4.491 16.263 0 4.367 4.367 4.488 11.373 0.362 15.885-0.128-2.371-2.091-4.254-4.493-4.254h-8c-2.403 0-4.365 1.883-4.493 4.254-4.126-4.513-4.005-11.518 0.362-15.885zM10.5 26.103v-2.103c0-0.828 0.672-1.5 1.5-1.5h8c0.828 0 1.5 0.672 1.5 1.5v2.103c-3.418 1.863-7.582 1.863-11 0z"
      />
</symbol>
<symbol id="icon-grid" viewBox="0 0 32 32">
<path
        d="M5.861 4.5h4.222v5.584h-5.583v-4.222c0-0.752 0.609-1.361 1.361-1.361zM5.861 1.5h20.028c2.409 0 4.361 1.953 4.361 4.361v20.028c0 2.409-1.953 4.361-4.361 4.361h-20.028c-2.409 0-4.361-1.953-4.361-4.361v-20.028c0-2.409 1.953-4.361 4.361-4.361zM13.083 4.5v5.584h5.583v-5.583h-5.583zM21.667 4.5v5.584h5.583v-4.222c0-0.752-0.609-1.361-1.361-1.361h-4.222zM27.25 13.084h-5.583v5.583h5.583v-5.583zM27.25 21.667h-5.583v5.583h4.222c0.752 0 1.361-0.609 1.361-1.361v-4.222zM18.667 27.25v-5.583h-5.583v5.583h5.583zM10.083 27.25v-5.583h-5.583v4.222c0 0.752 0.609 1.361 1.361 1.361h4.222zM4.5 18.667h5.583v-5.583h-5.583v5.583zM13.083 13.084v5.583h5.583v-5.583h-5.583z"
      />
</symbol>
<symbol id="icon-zoom_out" viewBox="0 0 32 32">
<path
        d="M15.167 6.5c4.51 0 8.167 3.656 8.167 8.167 0 2.193-0.864 4.184-2.271 5.651-0.045 0.035-0.088 0.074-0.129 0.115s-0.080 0.084-0.115 0.129c-1.467 1.407-3.458 2.271-5.651 2.271-4.51 0-8.167-3.656-8.167-8.167s3.656-8.167 8.167-8.167zM24.052 21.431c1.431-1.877 2.281-4.221 2.281-6.764 0-6.167-5-11.167-11.167-11.167s-11.167 4.999-11.167 11.167c0 6.167 4.999 11.167 11.167 11.167 2.543 0 4.887-0.85 6.764-2.281l4.258 4.258c0.586 0.586 1.535 0.586 2.121 0s0.586-1.535 0-2.121l-4.258-4.258zM18.792 13.166c-3.573 0-2.761 0-7.25 0-0.828 0-1.5 0.672-1.5 1.5s0.672 1.5 1.5 1.5c4.489 0 3.677 0 7.25 0 0.828 0 1.5-0.671 1.5-1.5s-0.672-1.5-1.5-1.5z"
      />
</symbol>
<symbol id="icon-zoom_in" viewBox="0 0 32 32">
<path
        d="M14.667 6.5c4.51 0 8.167 3.656 8.167 8.167 0 2.193-0.864 4.184-2.271 5.651-0.045 0.035-0.088 0.074-0.129 0.115s-0.080 0.084-0.115 0.129c-1.467 1.407-3.458 2.271-5.651 2.271-4.51 0-8.167-3.656-8.167-8.167s3.656-8.167 8.167-8.167zM23.552 21.431c1.431-1.877 2.281-4.221 2.281-6.764 0-6.167-5-11.167-11.167-11.167s-11.167 4.999-11.167 11.167c0 6.167 4.999 11.167 11.167 11.167 2.543 0 4.887-0.85 6.764-2.281l4.258 4.258c0.586 0.586 1.535 0.586 2.121 0s0.586-1.535 0-2.121l-4.258-4.258zM14.667 9.541c-0.828 0-1.5 0.672-1.5 1.5v2.125h-2.125c-0.828 0-1.5 0.672-1.5 1.5s0.672 1.5 1.5 1.5h2.125v2.125c0 0.829 0.672 1.5 1.5 1.5s1.5-0.671 1.5-1.5v-2.125h2.125c0.828 0 1.5-0.671 1.5-1.5s-0.672-1.5-1.5-1.5h-2.125v-2.125c0-0.829-0.672-1.5-1.5-1.5z"
      />
</symbol>
<symbol id="icon-view_off" viewBox="0 0 32 32">
<path
        d="M3.446 2.568c-0.515-0.16-1.099-0.036-1.507 0.372-0.586 0.586-0.586 1.536 0 2.121l3.84 3.84c-2.756 2.459-4.369 5.493-5.152 7.264-0.185 0.419-0.169 0.9 0.045 1.305 0.913 1.733 2.824 4.201 5.413 6.246 2.594 2.049 6.008 3.784 9.914 3.784 2.581 0 4.831-0.636 6.768-1.611l4.171 4.171c0.586 0.586 1.536 0.586 2.121 0s0.586-1.536 0-2.121l-0.007-0.007c-0.225-0.070-0.436-0.194-0.614-0.372l-24.993-24.993zM27.512 22.391l-2.121-2.121c1.203-1.206 2.166-2.495 2.901-3.613-1.614-3.307-5.301-8.658-12.293-8.658-0.928 0-1.798 0.094-2.613 0.266l-2.44-2.44c1.497-0.519 3.176-0.826 5.053-0.826 9.472 0 13.896 7.827 15.372 11.165 0.2 0.453 0.164 0.976-0.097 1.396-0.797 1.286-2.038 3.102-3.763 4.83zM21.944 16.823l-6.767-6.767c0.269-0.037 0.544-0.056 0.823-0.056 3.314 0 6 2.686 6 6 0 0.279-0.019 0.554-0.056 0.823zM3.688 16.697c0.815-1.677 2.166-3.893 4.219-5.669l2.586 2.586c-0.317 0.731-0.493 1.538-0.493 2.386 0 3.314 2.686 6 6 6 0.848 0 1.654-0.176 2.386-0.493l2.115 2.115c-1.347 0.547-2.845 0.878-4.5 0.878-3.006 0-5.782-1.342-8.055-3.138-1.951-1.542-3.429-3.338-4.258-4.666zM15.876 18.997c-1.558-0.063-2.81-1.315-2.874-2.874l2.874 2.874z"
      />
</symbol>
<symbol id="icon-move" viewBox="0 0 32 32">
<path
        d="M14.733 0.939l-4.537 4.537c-0.586 0.586-0.586 1.536 0 2.121s1.536 0.586 2.121 0l1.977-1.977 0 6.966c0 0.828 0.672 1.5 1.5 1.5s1.5-0.672 1.5-1.5l-0-6.966 1.977 1.977c0.586 0.586 1.535 0.586 2.121 0s0.586-1.536 0-2.121l-4.537-4.537c-0.586-0.586-1.536-0.586-2.121 0zM23.989 10.195c-0.586 0.586-0.586 1.536 0 2.121l1.977 1.977h-6.966c-0.828 0-1.5 0.672-1.5 1.5s0.672 1.5 1.5 1.5h6.966l-1.977 1.977c-0.586 0.586-0.586 1.536 0 2.121s1.535 0.586 2.121 0l4.537-4.537c0.281-0.281 0.439-0.663 0.439-1.061s-0.158-0.779-0.439-1.061l-4.537-4.537c-0.586-0.586-1.535-0.586-2.121 0zM7.598 10.196c-0.586-0.586-1.536-0.586-2.121 0l-4.537 4.537c-0.586 0.586-0.586 1.536 0 2.121l4.537 4.537c0.586 0.586 1.536 0.586 2.121 0s0.586-1.536 0-2.121l-1.977-1.977 6.966-0c0.829 0 1.5-0.671 1.5-1.5s-0.671-1.5-1.5-1.5l-6.966 0 1.977-1.977c0.586-0.586 0.586-1.536 0-2.121zM15.794 17.5c-0.828 0-1.5 0.672-1.5 1.5v6.966l-1.977-1.977c-0.586-0.586-1.536-0.586-2.121 0s-0.586 1.536 0 2.121l4.537 4.537c0.586 0.586 1.536 0.586 2.121 0l4.537-4.537c0.586-0.586 0.586-1.536 0-2.121s-1.535-0.586-2.121 0l-1.977 1.977v-6.966c0-0.828-0.672-1.5-1.5-1.5z"
      />
</symbol>
<symbol id="icon-home" viewBox="0 0 32 32">
<path
        d="M19.23 1.665c-1.688-1.523-4.246-1.548-5.964-0.058l-10.216 8.863c-0.985 0.855-1.551 2.095-1.551 3.399v12.131c0 2.485 2.015 4.5 4.5 4.5h20c2.485 0 4.5-2.015 4.5-4.5v-12.166c0-1.274-0.54-2.488-1.485-3.341l-9.784-8.828zM15.233 3.873c0.572-0.497 1.425-0.488 1.988 0.019l9.784 8.828c0.315 0.284 0.495 0.689 0.495 1.114v12.166c0 0.828-0.672 1.5-1.5 1.5h-4.5v-7c0-1.381-1.119-2.5-2.5-2.5h-6c-1.381 0-2.5 1.119-2.5 2.5v7h-4.5c-0.828 0-1.5-0.672-1.5-1.5v-12.131c0-0.435 0.189-0.848 0.517-1.133l10.216-8.863zM13.5 27.5v-6.5h5v6.5h-5z"
      />
</symbol>
<symbol id="icon-security" viewBox="0 0 32 32">
<path
        d="M15.073 1.595c0.34-0.127 0.714-0.127 1.053 0l10.6 3.975c0.585 0.22 0.973 0.779 0.973 1.404v9.275c0 4.645-3.073 8.338-5.812 10.735-1.401 1.226-2.796 2.184-3.837 2.834-0.522 0.326-0.959 0.578-1.269 0.749-0.155 0.086-0.279 0.152-0.366 0.198-0.044 0.023-0.078 0.041-0.102 0.053l-0.042 0.021c-0 0-0.001 0-0.672-1.341-0.671 1.342-0.671 1.341-0.672 1.341l-0.004-0.002-0.009-0.005-0.029-0.015c-0.024-0.012-0.059-0.030-0.102-0.053-0.087-0.046-0.21-0.112-0.366-0.198-0.31-0.172-0.747-0.423-1.269-0.749-1.041-0.651-2.435-1.608-3.836-2.834-2.74-2.397-5.812-6.090-5.812-10.735v-9.275c0-0.625 0.388-1.185 0.973-1.405l10.6-3.975zM15.6 29.5l0.671 1.342c-0.422 0.211-0.919 0.211-1.342 0l0.671-1.342zM15.6 27.792c0.238-0.136 0.53-0.309 0.861-0.516 0.947-0.592 2.202-1.456 3.451-2.548 2.56-2.24 4.788-5.172 4.788-8.477v-8.236l-9.1-3.412-9.1 3.412v8.236c0 3.305 2.227 6.237 4.788 8.477 1.249 1.093 2.505 1.957 3.451 2.548 0.332 0.207 0.623 0.38 0.861 0.516zM15.6 9.45c-0.829 0-1.5 0.672-1.5 1.5v5.3c0 0.828 0.671 1.5 1.5 1.5s1.5-0.672 1.5-1.5v-5.3c0-0.828-0.672-1.5-1.5-1.5zM14.1 21.55c0 0.828 0.671 1.5 1.5 1.5h0.011c0.828 0 1.5-0.672 1.5-1.5s-0.672-1.5-1.5-1.5h-0.011c-0.829 0-1.5 0.672-1.5 1.5z"
      />
</symbol>
<symbol id="icon-help" viewBox="0 0 32 32">
<path
        d="M15.9 18.36h0.16c0.58 0 1-0.46 1.080-0.98l0.060-0.36c2.18-0.44 3.94-1.48 3.94-4.020v-0.040c0-2.66-1.96-4.14-4.84-4.14-1.76 0-3.1 0.56-4.16 1.44-0.36 0.3-0.52 0.7-0.52 1.080 0 0.76 0.64 1.4 1.4 1.4 0.34 0 0.66-0.14 0.9-0.32 0.72-0.54 1.46-0.8 2.32-0.8 1.16 0 1.84 0.52 1.84 1.42v0.040c0 0.98-0.8 1.52-2.54 1.74-0.64 0.080-1.020 0.54-0.92 1.2l0.2 1.36c0.080 0.54 0.5 0.98 1.080 0.98z"
      />
<path
        d="M15.9 19.68c-1 0-1.74 0.74-1.74 1.7v0.040c0 0.96 0.74 1.7 1.74 1.7s1.74-0.74 1.74-1.7v-0.040c0-0.96-0.74-1.7-1.74-1.7z"
      />
<path
        d="M26.253 5.747c-5.663-5.663-14.843-5.663-20.506 0s-5.663 14.844 0 20.506c5.663 5.663 14.843 5.663 20.506 0s5.663-14.844 0-20.506zM7.868 7.868c4.491-4.491 11.772-4.491 16.263 0s4.491 11.772 0 16.263c-4.491 4.491-11.772 4.491-16.263 0s-4.491-11.772 0-16.263z"
      />
</symbol>
<symbol id="icon-favorite_outline" viewBox="0 0 32 32">
<path
        stroke-linejoin="miter"
        stroke-linecap="butt"
        stroke-miterlimit="4"
        stroke-width="3"
        d="M14.737 26.104l-0.002-0.002-0.067-0.061c0 0 0 0 0 0-0.005-0.005-0.010-0.009-0.015-0.014-3.406-3.088-6.194-5.622-8.14-8.002-1.957-2.393-3.012-4.569-3.012-6.925 0-3.831 3.003-6.833 6.833-6.833 1.852 0 3.651 0.738 4.989 1.959l1.011 0.923 1.011-0.923c1.338-1.221 3.137-1.959 4.989-1.959 3.831 0 6.833 3.003 6.833 6.833 0 2.356-1.055 4.532-3.012 6.927-1.942 2.376-4.721 4.907-8.117 7.992-0.002 0.002-0.003 0.003-0.005 0.005v0l-0.104 0.095-1.594 1.44-1.598-1.455z"
      />
</symbol>
<symbol id="icon-favorite" viewBox="0 0 32 32">
<path
        d="M16.67 28.975c-0.382 0.345-0.963 0.344-1.344-0.003l-2-1.821c-3.384-3.068-6.273-5.689-8.309-8.177-2.061-2.52-3.351-5.026-3.351-7.875 0-4.659 3.674-8.333 8.333-8.333 2.244 0 4.399 0.89 6 2.351 1.601-1.461 3.756-2.351 6-2.351 4.659 0 8.333 3.674 8.333 8.333 0 2.848-1.29 5.355-3.351 7.876-2.029 2.482-4.905 5.096-8.274 8.158h-0l-0.104 0.095-1.933 1.747z"
      />
</symbol>
<symbol id="icon-bookmark" viewBox="0 0 32 32">
<path
        d="M8.75 5.5c-0.332 0-0.649 0.132-0.884 0.366s-0.366 0.552-0.366 0.884v19.415l7.381-4.218c0.461-0.264 1.027-0.264 1.488 0l7.381 4.218v-19.415c0-0.332-0.132-0.649-0.366-0.884s-0.552-0.366-0.884-0.366h-13.75zM5.745 3.745c0.797-0.797 1.878-1.245 3.005-1.245h13.75c1.127 0 2.208 0.448 3.005 1.245s1.245 1.878 1.245 3.005v22c0 0.535-0.285 1.029-0.747 1.297s-1.033 0.27-1.497 0.005l-8.881-5.075-8.881 5.075c-0.464 0.265-1.035 0.263-1.497-0.005s-0.747-0.763-0.747-1.297v-22c0-1.127 0.448-2.208 1.245-3.005z"
      />
</symbol>
<symbol id="icon-bookmark_add" viewBox="0 0 32 32">
<path
        d="M8.75 5.5c-0.332 0-0.649 0.132-0.884 0.366s-0.366 0.552-0.366 0.884v19.415l7.381-4.218c0.461-0.264 1.027-0.264 1.488 0l7.381 4.218v-19.415c0-0.332-0.132-0.649-0.366-0.884s-0.552-0.366-0.884-0.366h-13.75zM5.745 3.745c0.797-0.797 1.878-1.245 3.005-1.245h13.75c1.127 0 2.208 0.448 3.005 1.245s1.245 1.878 1.245 3.005v22c0 0.535-0.285 1.029-0.747 1.297s-1.033 0.27-1.497 0.005l-8.881-5.075-8.881 5.075c-0.464 0.265-1.035 0.263-1.497-0.005s-0.747-0.763-0.747-1.297v-22c0-1.127 0.448-2.208 1.245-3.005zM15.625 8c-0.828 0-1.5 0.672-1.5 1.5v2.625h-2.625c-0.828 0-1.5 0.672-1.5 1.5s0.672 1.5 1.5 1.5h2.625v2.625c0 0.828 0.672 1.5 1.5 1.5s1.5-0.672 1.5-1.5v-2.625h2.625c0.828 0 1.5-0.672 1.5-1.5s-0.672-1.5-1.5-1.5h-2.625v-2.625c0-0.828-0.672-1.5-1.5-1.5z"
      />
</symbol>
<symbol id="icon-add_photo" viewBox="0 0 31 32">
<path
        d="M24.526 1.5c-0.828 0-1.5 0.672-1.5 1.5v2.724h-2.724c-0.828 0-1.5 0.672-1.5 1.5s0.672 1.5 1.5 1.5h2.724v2.724c0 0.829 0.672 1.5 1.5 1.5s1.5-0.671 1.5-1.5v-2.724h2.724c0.829 0 1.5-0.672 1.5-1.5s-0.671-1.5-1.5-1.5h-2.724v-2.724c0-0.828-0.672-1.5-1.5-1.5zM4.816 5.908c-0.349 0-0.684 0.139-0.93 0.385s-0.385 0.581-0.385 0.93v19.711c0 0.349 0.139 0.684 0.385 0.93s0.581 0.385 0.93 0.385h0.786l12.353-12.353c0.809-0.809 1.907-1.264 3.051-1.264s2.242 0.454 3.051 1.264l1.784 1.784v-0.602c0-0.828 0.672-1.5 1.5-1.5s1.5 0.672 1.5 1.5v9.855c0 1.145-0.455 2.242-1.264 3.052s-1.907 1.264-3.052 1.264h-18.295c-0.005 0-0.010 0-0.015 0h-1.4c-1.145 0-2.242-0.455-3.052-1.264s-1.264-1.907-1.264-3.052v-19.711c0-1.145 0.455-2.242 1.264-3.052s1.907-1.264 3.052-1.264h9.855c0.829 0 1.5 0.672 1.5 1.5s-0.671 1.5-1.5 1.5h-9.855zM9.845 28.25h14.681c0.349 0 0.684-0.139 0.93-0.385s0.385-0.581 0.385-0.93v-5.010l-3.905-3.905c-0-0 0 0 0 0-0.247-0.247-0.581-0.385-0.93-0.385s-0.683 0.139-0.93 0.385c0 0 0 0 0 0l-10.231 10.231zM10.447 11.539c-0.727 0-1.316 0.589-1.316 1.316s0.589 1.316 1.316 1.316c0.727 0 1.316-0.589 1.316-1.316s-0.589-1.316-1.316-1.316zM6.131 12.855c0-2.383 1.932-4.316 4.316-4.316s4.316 1.932 4.316 4.316c0 2.384-1.932 4.316-4.316 4.316s-4.316-1.932-4.316-4.316z"
      />
</symbol>
<symbol id="icon-no_photo" viewBox="0 0 31 32">
<path
        d="M0.939 1.939c0.586-0.586 1.536-0.586 2.121 0l2.096 2.096c0.005 0.005 0.011 0.011 0.016 0.016 0.002 0.002 0.003 0.003 0.005 0.005l5.272 5.272c0.001 0.001 0.003 0.003 0.004 0.004s0.003 0.003 0.004 0.004l3.741 3.741c0.001 0.001 0.003 0.003 0.004 0.004s0.003 0.003 0.004 0.004l13.235 13.235c0.007 0.007 0.014 0.014 0.021 0.021l2.096 2.096c0.586 0.586 0.586 1.536 0 2.121s-1.536 0.586-2.121 0l-1.238-1.238c-0.517 0.229-1.085 0.352-1.676 0.352h-17.2c-0.017 0-0.033 0-0.050 0h-1.3c-1.101 0-2.156-0.437-2.934-1.215s-1.216-1.834-1.216-2.934v-18.553c0.001-0.545 0.11-1.085 0.321-1.588 0.011-0.027 0.023-0.055 0.035-0.082l-1.241-1.241c-0.586-0.586-0.586-1.536 0-2.121zM4.825 7.946v17.579c0 0.305 0.121 0.598 0.337 0.813s0.508 0.337 0.813 0.337h0.704l8.437-8.437-2.171-2.171c-0.029 0.013-0.058 0.025-0.088 0.038-0.504 0.209-1.043 0.316-1.589 0.316s-1.085-0.107-1.589-0.316c-0.504-0.209-0.961-0.514-1.347-0.9s-0.691-0.843-0.9-1.347c-0.209-0.504-0.316-1.044-0.316-1.589s0.107-1.085 0.316-1.589c0.012-0.030 0.025-0.059 0.038-0.088l-2.646-2.645zM17.238 20.359l-6.316 6.316h12.632l-6.316-6.316zM9.775 4.325c0 0.828 0.672 1.5 1.5 1.5h13.25c0.305 0 0.598 0.121 0.813 0.337s0.337 0.508 0.337 0.813v9.629l-1.414-1.414c-0.586-0.586-1.536-0.586-2.121 0s-0.586 1.536 0 2.121l3.975 3.975c0.429 0.429 1.074 0.557 1.635 0.325s0.926-0.779 0.926-1.386v-13.25c0-1.101-0.437-2.156-1.215-2.934s-1.834-1.216-2.934-1.216h-13.25c-0.828 0-1.5 0.672-1.5 1.5z"
      />
</symbol>
<symbol id="icon-history" viewBox="0 0 31 32">
<path
        d="M3.5 2.5c0.828 0 1.5 0.672 1.5 1.5v3.231l1.46-1.314c2.237-1.998 5.081-3.187 8.074-3.374s5.963 0.636 8.433 2.339 4.294 4.187 5.182 7.052c0.888 2.865 0.788 5.945-0.286 8.746s-3.056 5.16-5.631 6.698c-2.575 1.538-5.592 2.166-8.567 1.784s-5.735-1.754-7.837-3.894c-2.102-2.14-3.424-4.924-3.753-7.906-0.091-0.823 0.503-1.565 1.326-1.656s1.565 0.503 1.656 1.326c0.255 2.313 1.281 4.473 2.911 6.133s3.772 2.724 6.079 3.021 4.649-0.191 6.646-1.384c1.998-1.193 3.536-3.023 4.369-5.196s0.91-4.563 0.222-6.785c-0.689-2.223-2.105-4.149-4.020-5.47s-4.219-1.96-6.542-1.814c-2.321 0.146-4.527 1.067-6.262 2.616l-1.052 0.946h2.69c0.828 0 1.5 0.672 1.5 1.5s-0.672 1.5-1.5 1.5h-6.599c-0.828 0-1.5-0.672-1.5-1.5v-6.599c0-0.828 0.672-1.5 1.5-1.5z"
      />
<path
        d="M15 9.5c0.828 0 1.5 0.672 1.5 1.5v5.672l4.45 2.225c0.741 0.37 1.041 1.271 0.671 2.012s-1.271 1.041-2.012 0.671l-5.279-2.639c-0.508-0.254-0.829-0.773-0.829-1.342v-6.599c0-0.828 0.672-1.5 1.5-1.5z"
      />
</symbol>
<symbol id="icon-replay_circle" viewBox="0 0 31 32">
<path
        d="M4 2.5c0.828 0 1.5 0.672 1.5 1.5v3.231l1.46-1.314c2.237-1.998 5.081-3.187 8.074-3.374s5.963 0.636 8.433 2.339 4.294 4.187 5.182 7.052c0.888 2.865 0.788 5.945-0.286 8.746s-3.056 5.16-5.631 6.698c-2.575 1.538-5.592 2.166-8.567 1.784s-5.735-1.754-7.837-3.894c-2.102-2.14-3.424-4.924-3.753-7.906-0.091-0.823 0.503-1.565 1.326-1.656s1.565 0.503 1.656 1.326c0.255 2.313 1.281 4.473 2.911 6.133s3.772 2.724 6.079 3.021 4.649-0.191 6.646-1.384c1.998-1.193 3.536-3.023 4.369-5.196s0.91-4.563 0.222-6.785c-0.689-2.223-2.105-4.149-4.020-5.47s-4.219-1.96-6.542-1.814c-2.321 0.146-4.527 1.067-6.262 2.616l-1.052 0.946h2.69c0.828 0 1.5 0.672 1.5 1.5s-0.672 1.5-1.5 1.5h-6.599c-0.828 0-1.5-0.672-1.5-1.5v-6.599c0-0.828 0.672-1.5 1.5-1.5z"
      />
</symbol>
<symbol id="icon-play_circle" viewBox="0 0 32 32">
<path
        d="M12 20c0 0.5 0.253 0.849 0.641 0.95s0.835 0.045 1.132-0.141l6.727-3.809c0.026-0.017 0.064-0.038 0.108-0.063 0.289-0.163 0.892-0.504 0.892-0.937s-0.603-0.774-0.892-0.937c-0.045-0.025-0.082-0.046-0.108-0.063l-6.727-3.809c-0.297-0.187-0.744-0.242-1.132-0.141s-0.641 0.45-0.641 0.95v8z"
      />
<path
        d="M26.253 5.747c-5.663-5.663-14.843-5.663-20.506 0s-5.663 14.844 0 20.506c5.663 5.663 14.843 5.663 20.506 0s5.663-14.844 0-20.506zM7.868 7.868c4.491-4.491 11.772-4.491 16.263 0s4.491 11.772 0 16.264c-4.491 4.491-11.772 4.491-16.263 0s-4.491-11.773 0-16.264z"
      />
</symbol>
<symbol id="icon-pause_circle" viewBox="0 0 32 32">
<path
        d="M13 10c0.828 0 1.5 0.672 1.5 1.5v9c0 0.828-0.672 1.5-1.5 1.5s-1.5-0.672-1.5-1.5v-9c0-0.828 0.672-1.5 1.5-1.5z"
      />
<path
        d="M19 10c0.828 0 1.5 0.672 1.5 1.5v9c0 0.828-0.672 1.5-1.5 1.5s-1.5-0.672-1.5-1.5v-9c0-0.828 0.672-1.5 1.5-1.5z"
      />
<path
        d="M26.253 5.747c-5.663-5.663-14.843-5.663-20.506 0s-5.663 14.844 0 20.506c5.663 5.663 14.843 5.663 20.506 0s5.663-14.844 0-20.506zM7.868 7.868c4.491-4.491 11.772-4.491 16.263 0s4.491 11.772 0 16.264c-4.491 4.491-11.772 4.491-16.263 0s-4.491-11.773 0-16.264z"
      />
</symbol>
<symbol id="icon-clipboard" viewBox="0 0 32 32">
<path
        d="M12.2 3.5h8.4v2.7h-8.4v-2.7zM23.599 3.35h1.351c1.154 0 2.26 0.458 3.076 1.274s1.274 1.922 1.274 3.076v19.95c0 1.154-0.458 2.26-1.274 3.076s-1.922 1.274-3.076 1.274h-17.1c-1.154 0-2.26-0.458-3.076-1.274s-1.274-1.922-1.274-3.076v-19.95c0-1.154 0.458-2.26 1.274-3.076s1.922-1.274 3.076-1.274h1.351c0.040-1.581 1.334-2.85 2.924-2.85h8.55c1.59 0 2.884 1.269 2.924 2.85zM23.599 6.35c-0.040 1.581-1.334 2.85-2.924 2.85h-8.55c-1.59 0-2.884-1.269-2.924-2.85h-1.351c-0.358 0-0.701 0.142-0.955 0.395s-0.395 0.597-0.395 0.955v19.95c0 0.358 0.142 0.701 0.395 0.955s0.597 0.395 0.955 0.395h17.1c0.358 0 0.701-0.142 0.955-0.395s0.395-0.597 0.395-0.955v-19.95c0-0.358-0.142-0.701-0.395-0.955s-0.597-0.395-0.955-0.395h-1.351zM9.2 14.825c0 0.828 0.672 1.5 1.5 1.5h0.013c0.828 0 1.5-0.672 1.5-1.5s-0.672-1.5-1.5-1.5h-0.013c-0.828 0-1.5 0.672-1.5 1.5zM14.9 14.825c0 0.828 0.672 1.5 1.5 1.5h5.7c0.828 0 1.5-0.672 1.5-1.5s-0.672-1.5-1.5-1.5h-5.7c-0.828 0-1.5 0.672-1.5 1.5zM9.2 21.95c0 0.828 0.672 1.5 1.5 1.5h0.013c0.828 0 1.5-0.672 1.5-1.5s-0.672-1.5-1.5-1.5h-0.013c-0.828 0-1.5 0.672-1.5 1.5zM14.9 21.95c0 0.828 0.672 1.5 1.5 1.5h5.7c0.828 0 1.5-0.672 1.5-1.5s-0.672-1.5-1.5-1.5h-5.7c-0.828 0-1.5 0.672-1.5 1.5z"
      />
</symbol>
<symbol id="icon-fullscreen" viewBox="0 0 32 32">
<path
        d="M7.528 6.5h2.528c0.828 0 1.5-0.672 1.5-1.5s-0.672-1.5-1.5-1.5h-2.528c-1.068 0-2.093 0.424-2.848 1.18s-1.18 1.78-1.18 2.848v2.528c0 0.828 0.672 1.5 1.5 1.5s1.5-0.672 1.5-1.5v-2.528c0-0.273 0.108-0.534 0.301-0.727s0.454-0.301 0.727-0.301zM21.194 5c0 0.828 0.672 1.5 1.5 1.5h2.528c0.273 0 0.534 0.108 0.727 0.301s0.301 0.454 0.301 0.727v2.528c0 0.828 0.672 1.5 1.5 1.5s1.5-0.672 1.5-1.5v-2.528c0-1.068-0.424-2.093-1.18-2.848s-1.78-1.18-2.848-1.18h-2.528c-0.828 0-1.5 0.672-1.5 1.5zM5 21.195c-0.828 0-1.5 0.672-1.5 1.5v2.528c0 1.068 0.424 2.093 1.18 2.848s1.78 1.18 2.848 1.18h2.528c0.828 0 1.5-0.672 1.5-1.5s-0.672-1.5-1.5-1.5h-2.528c-0.273 0-0.534-0.108-0.727-0.301s-0.301-0.454-0.301-0.727v-2.528c0-0.828-0.672-1.5-1.5-1.5zM27.75 21.195c-0.828 0-1.5 0.672-1.5 1.5v2.528c0 0.273-0.108 0.534-0.301 0.727s-0.454 0.301-0.727 0.301h-2.528c-0.828 0-1.5 0.672-1.5 1.5s0.672 1.5 1.5 1.5h2.528c1.068 0 2.093-0.424 2.848-1.18s1.18-1.78 1.18-2.848v-2.528c0-0.828-0.671-1.5-1.5-1.5z"
      />
</symbol>
<symbol id="icon-chevron_forward" viewBox="0 0 32 32">
<path
        d="M11.939 6.939c0.586-0.586 1.536-0.586 2.121 0l8 8c0.586 0.586 0.586 1.536 0 2.121l-8 8c-0.586 0.586-1.536 0.586-2.121 0s-0.586-1.536 0-2.121l6.939-6.939-6.939-6.939c-0.586-0.586-0.586-1.536 0-2.121z"
      />
</symbol>
<symbol id="icon-chevron_back" viewBox="0 0 32 32">
<path
        d="M21.061 6.939c0.586 0.586 0.586 1.536 0 2.121l-6.939 6.939 6.939 6.939c0.586 0.586 0.586 1.536 0 2.121s-1.536 0.586-2.121 0l-8-8c-0.586-0.586-0.586-1.536 0-2.121l8-8c0.586-0.586 1.536-0.586 2.121 0z"
      />
</symbol>
<symbol id="icon-star_outline" viewBox="0 0 32 32">
<path
        d="M15.5 2c0.564 0 1.081 0.317 1.337 0.82l3.663 7.203 8.21 1.165c0.57 0.081 1.044 0.481 1.219 1.030s0.020 1.149-0.399 1.545l-5.913 5.59 1.393 7.886c0.099 0.56-0.128 1.128-0.585 1.467s-1.067 0.389-1.574 0.13l-7.352-3.753-7.352 3.753c-0.507 0.259-1.116 0.208-1.574-0.13s-0.684-0.907-0.585-1.467l1.393-7.886-5.913-5.59c-0.419-0.396-0.574-0.996-0.399-1.545s0.648-0.949 1.219-1.030l8.21-1.165 3.663-7.203c0.256-0.503 0.773-0.82 1.337-0.82zM15.5 6.809l-2.68 5.27c-0.222 0.436-0.642 0.736-1.126 0.805l-5.902 0.837 4.239 4.007c0.367 0.347 0.534 0.854 0.447 1.351l-1.010 5.715 5.351-2.731c0.428-0.219 0.936-0.219 1.364 0l5.351 2.731-1.010-5.715c-0.088-0.497 0.080-1.004 0.447-1.351l4.238-4.007-5.902-0.837c-0.484-0.069-0.905-0.369-1.126-0.805l-2.68-5.27z"
      />
</symbol>
<symbol id="icon-star" viewBox="0 0 32 32">
<path
        d="M16 2.5c0.564 0 1.081 0.317 1.337 0.82l3.663 7.203 8.21 1.165c0.57 0.081 1.044 0.481 1.219 1.030s0.020 1.149-0.399 1.545l-5.913 5.59 1.393 7.886c0.099 0.56-0.128 1.128-0.585 1.467s-1.067 0.389-1.574 0.13l-7.352-3.753-7.352 3.753c-0.507 0.259-1.116 0.208-1.574-0.13s-0.684-0.907-0.585-1.467l1.393-7.886-5.913-5.59c-0.419-0.396-0.574-0.996-0.399-1.545s0.648-0.949 1.219-1.030l8.21-1.165 3.663-7.203c0.256-0.503 0.773-0.82 1.337-0.82z"
      />
</symbol>
<symbol id="icon-more-vertical" viewBox="0 0 32 32">
<path
        d="M18.667 16c0-0.736-0.3-1.404-0.781-1.885-0.482-0.484-1.149-0.783-1.885-0.783s-1.403 0.299-1.885 0.783c-0.484 0.482-0.783 1.149-0.783 1.885s0.299 1.403 0.783 1.885c0.482 0.484 1.149 0.783 1.885 0.783s1.403-0.299 1.885-0.783c0.481-0.481 0.781-1.149 0.781-1.885zM18.667 6.667c0-0.736-0.3-1.404-0.781-1.885-0.482-0.484-1.149-0.783-1.885-0.783s-1.403 0.299-1.885 0.783c-0.484 0.482-0.783 1.149-0.783 1.885s0.299 1.403 0.783 1.885c0.482 0.484 1.149 0.783 1.885 0.783s1.403-0.299 1.885-0.783c0.481-0.481 0.781-1.149 0.781-1.885zM18.667 25.333c0-0.736-0.3-1.404-0.781-1.885-0.482-0.484-1.149-0.783-1.885-0.783s-1.403 0.299-1.885 0.783c-0.484 0.482-0.783 1.149-0.783 1.885s0.299 1.403 0.783 1.885c0.482 0.484 1.149 0.783 1.885 0.783s1.403-0.299 1.885-0.783c0.481-0.481 0.781-1.149 0.781-1.885z"
      />
</symbol>
<symbol id="icon-menu" viewBox="0 0 32 32">
<path
        d="M2 7.535c0-0.848 0.816-1.535 1.823-1.535h24.354c1.007 0 1.823 0.687 1.823 1.535s-0.816 1.535-1.823 1.535h-24.354c-1.007 0-1.823-0.687-1.823-1.535z"
      />
<path
        d="M2 16c0-0.848 0.816-1.535 1.823-1.535h24.354c1.007 0 1.823 0.687 1.823 1.535s-0.816 1.535-1.823 1.535h-24.354c-1.007 0-1.823-0.687-1.823-1.535z"
      />
<path
        d="M2 24.465c0-0.848 0.816-1.535 1.823-1.535h24.354c1.007 0 1.823 0.687 1.823 1.535s-0.816 1.535-1.823 1.535h-24.354c-1.007 0-1.823-0.687-1.823-1.535z"
      />
</symbol>
<symbol id="icon-launch" viewBox="0 0 32 32">
<path
        d="M16.81 4.519c0-0.838 0.68-1.518 1.518-1.518h9.044c0.838 0 1.518 0.68 1.518 1.518v9.044c0 0.838-0.68 1.518-1.518 1.518s-1.518-0.68-1.518-1.518v-5.38l-8.262 8.262c-0.593 0.593-1.554 0.593-2.147 0s-0.593-1.554 0-2.147l8.262-8.262h-5.38c-0.838 0-1.518-0.68-1.518-1.518z"
      />
<path
        d="M5.5 6c-0.276 0-0.5 0.224-0.5 0.5v19c0 0.276 0.224 0.5 0.5 0.5h20c0.276 0 0.5-0.224 0.5-0.5v-6.5c0-0.828 0.672-1.5 1.5-1.5s1.5 0.672 1.5 1.5v6.5c0 1.933-1.567 3.5-3.5 3.5h-20c-1.933 0-3.5-1.567-3.5-3.5v-19c0-1.933 1.567-3.5 3.5-3.5h7c0.828 0 1.5 0.672 1.5 1.5s-0.672 1.5-1.5 1.5h-7z"
      />
</symbol>
<symbol id="icon-add_to" viewBox="0 0 32 32">
<path
        d="M1.5 7c0 0.828 0.672 1.5 1.5 1.5h18c0.828 0 1.5-0.672 1.5-1.5s-0.672-1.5-1.5-1.5h-18c-0.828 0-1.5 0.672-1.5 1.5zM24 10.5c-0.828 0-1.5 0.672-1.5 1.5v2.5h-2.5c-0.828 0-1.5 0.672-1.5 1.5s0.672 1.5 1.5 1.5h2.5v2.5c0 0.828 0.672 1.5 1.5 1.5s1.5-0.672 1.5-1.5v-2.5h2.5c0.828 0 1.5-0.672 1.5-1.5s-0.672-1.5-1.5-1.5h-2.5v-2.5c0-0.828-0.672-1.5-1.5-1.5zM1.5 16c0 0.828 0.672 1.5 1.5 1.5h11c0.828 0 1.5-0.672 1.5-1.5s-0.672-1.5-1.5-1.5h-11c-0.828 0-1.5 0.672-1.5 1.5zM1.5 24c0 0.828 0.672 1.5 1.5 1.5h18c0.828 0 1.5-0.672 1.5-1.5s-0.672-1.5-1.5-1.5h-18c-0.828 0-1.5 0.672-1.5 1.5z"
      />
</symbol>
<symbol id="icon-menu_open" viewBox="0 0 32 32">
<path
        d="M2 7.535c0-0.848 0.67-1.535 1.497-1.535h20.005c0.827 0 1.497 0.687 1.497 1.535s-0.67 1.535-1.497 1.535h-20.005c-0.827 0-1.497-0.687-1.497-1.535z"
      />
<path
        d="M2 16c0-0.848 0.67-1.535 1.497-1.535h12.613c0.827 0 1.497 0.687 1.497 1.535s-0.67 1.535-1.497 1.535h-12.613c-0.827 0-1.497-0.687-1.497-1.535z"
      />
<path
        d="M2 24.465c0-0.848 0.67-1.535 1.497-1.535h20.005c0.827 0 1.497 0.687 1.497 1.535s-0.67 1.535-1.497 1.535h-20.005c-0.827 0-1.497-0.687-1.497-1.535z"
      />
<path
        d="M29.061 9.939c0.586 0.586 0.586 1.536 0 2.121l-3.939 3.939 3.939 3.939c0.586 0.586 0.586 1.536 0 2.121s-1.536 0.586-2.121 0l-5-5c-0.586-0.586-0.586-1.536 0-2.121l5-5c0.586-0.586 1.536-0.586 2.121 0z"
      />
</symbol>
<symbol id="icon-remove_circle" viewBox="0 0 32 32">
<path
        d="M16 4.5c-6.351 0-11.5 5.149-11.5 11.5s5.149 11.5 11.5 11.5c6.351 0 11.5-5.149 11.5-11.5s-5.149-11.5-11.5-11.5zM1.5 16c0-8.008 6.492-14.5 14.5-14.5s14.5 6.492 14.5 14.5c0 8.008-6.492 14.5-14.5 14.5s-14.5-6.492-14.5-14.5zM9.5 16c0 0.828 0.672 1.5 1.5 1.5h10c0.828 0 1.5-0.672 1.5-1.5s-0.672-1.5-1.5-1.5h-10c-0.828 0-1.5 0.672-1.5 1.5z"
      />
</symbol>
<symbol id="icon-shortcut" viewBox="0 0 32 32">
<path
        d="M2.5 31c0.828 0 1.5-0.672 1.5-1.5v-10.5c0-1.524 0.415-2.549 1.181-3.226 0.802-0.709 2.253-1.274 4.819-1.274h16.379l-7.439 7.439c-0.586 0.586-0.586 1.536 0 2.121s1.536 0.586 2.121 0l10-10c0.281-0.281 0.439-0.663 0.439-1.061s-0.158-0.779-0.439-1.061l-10-10c-0.586-0.586-1.536-0.586-2.121 0s-0.586 1.536 0 2.121l7.439 7.439h-16.379c-2.934 0-5.233 0.636-6.806 2.026-1.609 1.423-2.194 3.398-2.194 5.474v10.5c0 0.828 0.672 1.5 1.5 1.5z"
      />
</symbol>
<symbol id="icon-more-horizontal" viewBox="0 0 32 32">
<path
        d="M18.667 16c0-0.736-0.3-1.404-0.781-1.885-0.482-0.484-1.149-0.783-1.885-0.783s-1.403 0.299-1.885 0.783c-0.484 0.482-0.783 1.149-0.783 1.885s0.299 1.403 0.783 1.885c0.482 0.484 1.149 0.783 1.885 0.783s1.403-0.299 1.885-0.783c0.481-0.481 0.781-1.149 0.781-1.885zM28 16c0-0.736-0.3-1.404-0.781-1.885-0.482-0.484-1.149-0.783-1.885-0.783s-1.403 0.299-1.885 0.783c-0.484 0.482-0.783 1.149-0.783 1.885s0.299 1.403 0.783 1.885c0.482 0.484 1.149 0.783 1.885 0.783s1.403-0.299 1.885-0.783c0.481-0.481 0.781-1.149 0.781-1.885zM9.333 16c0-0.736-0.3-1.404-0.781-1.885-0.482-0.484-1.149-0.783-1.885-0.783s-1.403 0.299-1.885 0.783c-0.484 0.482-0.783 1.149-0.783 1.885s0.299 1.403 0.783 1.885c0.482 0.484 1.149 0.783 1.885 0.783s1.403-0.299 1.885-0.783c0.481-0.481 0.781-1.149 0.781-1.885z"
      />
</symbol>
<symbol id="icon-business" viewBox="0 0 32 32">
<path
        d="M5.5 30.5c-2.209 0-4-1.791-4-4v-21c0-2.209 1.791-4 4-4h10c2.209 0 4 1.791 4 4v3h7c2.209 0 4 1.791 4 4v14c0 2.209-1.791 4-4 4h-21zM19.5 11.5v16h7c0.552 0 1-0.448 1-1v-14c0-0.552-0.448-1-1-1h-7zM16.5 8.5v-3c0-0.552-0.448-1-1-1h-3.5v4h4.5zM16.5 27.5v-4h-4.5v4h4.5zM16.5 20.5v-3h-4.5v3h4.5zM16.5 14.5v-3h-4.5v3h4.5zM4.5 5.5v3h4.5v-4h-3.5c-0.552 0-1 0.448-1 1zM4.5 11.5v3h4.5v-3h-4.5zM4.5 17.5v3h4.5v-3h-4.5zM4.5 23.5v3c0 0.552 0.448 1 1 1h3.5v-4h-4.5z"
      />
</symbol>
<symbol id="icon-play_arrow" viewBox="0 0 32 32">
<path
        d="M8.506 6.399c0.931-0.535 2.078-0.531 3.006 0.010l12 7c0.922 0.538 1.488 1.524 1.488 2.591s-0.567 2.054-1.488 2.591l-12 7c-0.928 0.541-2.074 0.545-3.006 0.010s-1.506-1.527-1.506-2.601v-14c0-1.074 0.574-2.066 1.506-2.601z"
      />
</symbol>
<symbol id="icon-split_arrow" viewBox="0 0 32 32">
<path
        d="M17.192 3.472c-0.015 0.828 0.644 1.512 1.472 1.528l4.966 0.092-5.138 5.199c-0.582 0.589-0.577 1.539 0.012 2.121s1.539 0.577 2.121-0.012l5.098-5.158 0.091 4.909c0.015 0.828 0.699 1.487 1.527 1.472s1.487-0.699 1.472-1.527l-0.157-8.466c-0.015-0.807-0.665-1.457-1.472-1.472l-8.466-0.157c-0.828-0.015-1.512 0.644-1.527 1.472zM14.622 3.472c-0.015-0.828-0.699-1.487-1.527-1.472l-8.466 0.157c-0.807 0.015-1.457 0.665-1.472 1.472l-0.157 8.466c-0.015 0.828 0.644 1.512 1.472 1.527s1.512-0.644 1.528-1.472l0.091-4.909 7.255 7.34v13.461c0 0.828 0.672 1.5 1.5 1.5s1.5-0.672 1.5-1.5v-14.078c0-0.395-0.156-0.774-0.433-1.055l-7.728-7.819 4.966-0.092c0.828-0.015 1.487-0.699 1.472-1.528z"
      />
</symbol>
<symbol id="icon-warning" viewBox="0 0 32 32">
<path
        d="M16 10.5c0.828 0 1.5 0.672 1.5 1.5v6c0 0.828-0.672 1.5-1.5 1.5s-1.5-0.672-1.5-1.5v-6c0-0.828 0.672-1.5 1.5-1.5z"
      />
<path
        d="M17.5 23.5c0 0.828-0.672 1.5-1.5 1.5s-1.5-0.672-1.5-1.5c0-0.828 0.672-1.5 1.5-1.5s1.5 0.672 1.5 1.5z"
      />
<path
        d="M16 2.5c-0.758 0-1.503 0.199-2.159 0.579s-1.2 0.924-1.576 1.582l-0.002 0.003-11.187 19.422c-0.379 0.652-0.578 1.394-0.577 2.149 0.002 0.756 0.205 1.498 0.588 2.149s0.932 1.19 1.59 1.561c0.656 0.37 1.398 0.561 2.151 0.556h22.378c0.752-0.001 1.491-0.198 2.143-0.572s1.195-0.913 1.573-1.563c0.378-0.651 0.578-1.389 0.577-2.142-0-0.751-0.199-1.488-0.576-2.138l-11.188-19.425c-0.376-0.657-0.92-1.203-1.576-1.582s-1.401-0.579-2.159-0.579zM15.342 5.676c0.199-0.115 0.426-0.176 0.658-0.176s0.459 0.061 0.658 0.176c0.199 0.115 0.362 0.279 0.474 0.475l11.197 19.44c0.113 0.193 0.171 0.412 0.171 0.633s-0.059 0.44-0.171 0.633c-0.113 0.193-0.275 0.355-0.473 0.469s-0.422 0.174-0.652 0.174l-22.395 0c-0.231 0.002-0.458-0.057-0.658-0.169s-0.364-0.274-0.478-0.468c-0.114-0.194-0.174-0.413-0.174-0.635s0.058-0.442 0.171-0.636l11.197-19.44c0.112-0.196 0.275-0.36 0.474-0.475z"
      />
</symbol>
<symbol id="icon-add_circle" viewBox="0 0 32 32">
<path
        d="M16 9.5c0.828 0 1.5 0.672 1.5 1.5v3.5h3.5c0.828 0 1.5 0.672 1.5 1.5s-0.672 1.5-1.5 1.5h-3.5v3.5c0 0.828-0.672 1.5-1.5 1.5s-1.5-0.672-1.5-1.5v-3.5h-3.5c-0.828 0-1.5-0.672-1.5-1.5s0.672-1.5 1.5-1.5h3.5v-3.5c0-0.828 0.672-1.5 1.5-1.5z"
      />
<path
        d="M1.5 16c0-8.008 6.492-14.5 14.5-14.5s14.5 6.492 14.5 14.5c0 8.008-6.492 14.5-14.5 14.5s-14.5-6.492-14.5-14.5zM16 4.5c-6.351 0-11.5 5.149-11.5 11.5s5.149 11.5 11.5 11.5c6.351 0 11.5-5.149 11.5-11.5s-5.149-11.5-11.5-11.5z"
      />
</symbol>
<symbol id="icon-x" viewBox="0 0 32 32">
<path
        d="M25.561 8.561c0.586-0.586 0.586-1.536 0-2.121s-1.536-0.586-2.121 0l-7.439 7.439-7.439-7.439c-0.586-0.586-1.536-0.586-2.121 0s-0.586 1.536 0 2.121l7.439 7.439-7.439 7.439c-0.586 0.586-0.586 1.536 0 2.121s1.536 0.586 2.121 0l7.439-7.439 7.439 7.439c0.586 0.586 1.536 0.586 2.121 0s0.586-1.536 0-2.121l-7.439-7.439 7.439-7.439z"
      />
</symbol>
<symbol id="icon-email" viewBox="0 0 32 32">
<path
        d="M6 3h20c2.209 0 4 1.791 4 4v17c0 2.209-1.791 4-4 4h-20c-2.209 0-4-1.791-4-4v-17c0-2.209 1.791-4 4-4zM6 6c-0.552 0-1 0.448-1 1v17c0 0.552 0.448 1 1 1h20c0.552 0 1-0.448 1-1v-17c0-0.552-0.448-1-1-1h-20z"
      />
<path
        d="M2.871 4.512c0.546-0.623 1.493-0.687 2.117-0.141l10.991 9.617 10.51-9.596c0.612-0.559 1.561-0.515 2.119 0.096s0.515 1.561-0.096 2.119l-11.5 10.5c-0.564 0.515-1.425 0.524-1.999 0.021l-12-10.5c-0.623-0.546-0.687-1.493-0.141-2.117z"
      />
</symbol>
<symbol id="icon-wifi" viewBox="0 0 32 32">
<path
        d="M20.262 0.698c-0.719 0.411-0.969 1.327-0.558 2.046 2.221 3.887 3.389 8.286 3.389 12.763s-1.168 8.876-3.389 12.763c-0.411 0.719-0.161 1.636 0.558 2.046s1.636 0.161 2.046-0.558c2.479-4.34 3.784-9.252 3.784-14.251s-1.304-9.911-3.784-14.251c-0.411-0.719-1.327-0.969-2.047-0.558zM15.588 3.535c-0.719 0.412-0.968 1.328-0.556 2.047 1.731 3.021 2.642 6.442 2.645 9.924s-0.905 6.904-2.632 9.927c-0.411 0.719-0.161 1.636 0.559 2.047s1.636 0.161 2.046-0.558c1.986-3.477 3.030-7.413 3.027-11.417s-1.051-7.939-3.042-11.413c-0.412-0.719-1.328-0.968-2.047-0.556zM10.935 6.381c-0.721 0.408-0.975 1.323-0.567 2.044 1.222 2.16 1.864 4.6 1.864 7.082s-0.642 4.922-1.864 7.082c-0.408 0.721-0.154 1.636 0.567 2.044s1.636 0.154 2.044-0.567c1.477-2.611 2.253-5.559 2.253-8.559s-0.776-5.948-2.253-8.559c-0.408-0.721-1.323-0.975-2.044-0.567zM6.257 9.233c-0.72 0.41-0.97 1.326-0.56 2.046 0.734 1.288 1.12 2.745 1.12 4.228s-0.386 2.94-1.12 4.228c-0.41 0.72-0.16 1.636 0.56 2.046s1.636 0.16 2.046-0.56c0.992-1.741 1.514-3.71 1.514-5.713s-0.522-3.973-1.514-5.713c-0.41-0.72-1.326-0.97-2.046-0.56z"
      />
</symbol>
<symbol id="icon-date_time" viewBox="0 0 32 32">
<path
        d="M9.776 0.5c0.828 0 1.5 0.672 1.5 1.5v1.211h7.842v-1.211c0-0.828 0.672-1.5 1.5-1.5s1.5 0.672 1.5 1.5v1.211h2.566c1.117 0 2.188 0.444 2.977 1.233s1.233 1.861 1.233 2.977v2.033c0 0.828-0.671 1.5-1.5 1.5s-1.5-0.671-1.5-1.5v-2.033c0-0.321-0.128-0.629-0.355-0.856s-0.535-0.355-0.856-0.355h-2.566v1.211c0 0.828-0.672 1.5-1.5 1.5s-1.5-0.672-1.5-1.5v-1.211h-7.842v1.211c0 0.828-0.672 1.5-1.5 1.5s-1.5-0.672-1.5-1.5v-1.211h-2.566c-0.321 0-0.629 0.128-0.856 0.355s-0.355 0.535-0.355 0.856v3.921h5.276c0.828 0 1.5 0.672 1.5 1.5s-0.672 1.5-1.5 1.5h-5.276v12.053c0 0.321 0.128 0.629 0.355 0.856s0.535 0.355 0.856 0.355h4.743c0.829 0 1.5 0.672 1.5 1.5s-0.671 1.5-1.5 1.5h-4.743c-1.117 0-2.188-0.444-2.977-1.233s-1.233-1.861-1.233-2.977v-18.974c0-1.117 0.444-2.188 1.233-2.977s1.861-1.233 2.977-1.233h2.566v-1.211c0-0.828 0.672-1.5 1.5-1.5zM20.618 14.342c-1.759 0-3.446 0.699-4.689 1.942s-1.942 2.93-1.942 4.689 0.699 3.446 1.942 4.689c1.244 1.244 2.93 1.942 4.689 1.942s3.446-0.699 4.689-1.942c1.244-1.244 1.942-2.93 1.942-4.689s-0.699-3.446-1.942-4.689c-1.244-1.244-2.93-1.942-4.689-1.942zM13.808 14.163c1.806-1.806 4.256-2.821 6.81-2.821s5.004 1.015 6.811 2.821c1.806 1.806 2.821 4.256 2.821 6.811s-1.015 5.004-2.821 6.811c-1.806 1.806-4.256 2.821-6.811 2.821s-5.004-1.015-6.811-2.821c-1.806-1.806-2.821-4.256-2.821-6.811s1.015-5.004 2.821-6.811zM20.618 16.763c-0.828 0-1.5 0.672-1.5 1.5v3.049c0 0.445 0.198 0.867 0.54 1.152l2.033 1.694c0.637 0.53 1.582 0.444 2.113-0.192s0.444-1.582-0.192-2.113l-1.493-1.244v-2.347c0-0.828-0.672-1.5-1.5-1.5z"
      />
</symbol>
<symbol id="icon-inbox" viewBox="0 0 32 32">
<path
        d="M27 1h-22c-2.209 0-4 1.791-4 4v22c0 2.209 1.791 4 4 4h22c2.209 0 4-1.791 4-4v-22c0-2.209-1.791-4-4-4zM4 5c0-0.552 0.448-1 1-1h22c0.552 0 1 0.448 1 1v12.5h-7.25c-0.828 0-1.5 0.672-1.5 1.5 0 0.339-0.223 1.132-0.824 1.848-0.557 0.663-1.348 1.152-2.426 1.152s-1.869-0.489-2.426-1.152c-0.601-0.715-0.824-1.509-0.824-1.848 0-0.828-0.672-1.5-1.5-1.5h-7.25v-12.5zM4 20.5h6.008c0.253 0.781 0.685 1.582 1.269 2.277 1.018 1.212 2.602 2.223 4.724 2.223s3.706-1.011 4.724-2.223c0.584-0.695 1.016-1.497 1.269-2.277h6.008v6.5c0 0.552-0.448 1-1 1h-22c-0.552 0-1-0.448-1-1v-6.5z"
      />
</symbol>
<symbol id="icon-inventory" viewBox="0 0 32 32">
<path
        d="M6 3h20c2.209 0 4 1.791 4 4v3c0 2.209-1.791 4-4 4h-20c-2.209 0-4-1.791-4-4v-3c0-2.209 1.791-4 4-4zM6 6c-0.552 0-1 0.448-1 1v3c0 0.552 0.448 1 1 1h20c0.552 0 1-0.448 1-1v-3c0-0.552-0.448-1-1-1h-20z"
      />
<path
        d="M7.5 26.5v-14.5h-3v15c0 1.381 1.119 2.5 2.5 2.5h18c1.381 0 2.5-1.119 2.5-2.5v-15h-3v14.5h-17z"
      />
<path
        d="M12.5 17.5c0-0.828 0.672-1.5 1.5-1.5h4.5c0.828 0 1.5 0.672 1.5 1.5s-0.672 1.5-1.5 1.5h-4.5c-0.828 0-1.5-0.672-1.5-1.5z"
      />
</symbol>
<symbol id="icon-edit" viewBox="0 0 32 32">
<path
        d="M25.688 10.478c0.208-0.208 0.313-0.469 0.313-0.781s-0.104-0.572-0.313-0.781l-2.604-2.604c-0.208-0.208-0.469-0.313-0.781-0.313s-0.573 0.104-0.781 0.313l-15.521 15.521v4.167h4.167l15.521-15.522zM27.809 12.6l-15.521 15.522c-0.563 0.563-1.326 0.879-2.121 0.879h-4.167c-1.657 0-3-1.343-3-3v-4.167c0-0.796 0.316-1.559 0.879-2.121l15.521-15.521c0.807-0.807 1.847-1.191 2.902-1.191s2.095 0.384 2.902 1.191l2.604 2.604c0.807 0.807 1.191 1.847 1.191 2.902s-0.384 2.095-1.191 2.902z"
      />
<path d="M22.939 15.561l-6-6 2.121-2.121 6 6-2.121 2.121z" />
</symbol>
<symbol id="icon-clock" viewBox="0 0 32 32">
<path
        d="M16 5.36c5.876 0 10.64 4.764 10.64 10.64 0 2.91-1.168 5.546-3.060 7.467-0.031 0.027-0.061 0.055-0.090 0.084-0.022 0.022-0.043 0.044-0.063 0.067-1.917 1.869-4.538 3.021-7.427 3.021-5.876 0-10.64-4.764-10.64-10.64s4.764-10.64 10.64-10.64zM30 16c0-7.732-6.268-14-14-14s-14 6.268-14 14c0 7.947 5.991 14 14 14 7.542 0 14-6.512 14-14zM16 8.16c-0.928 0-1.68 0.752-1.68 1.68v6.16c0 0.446 0.177 0.873 0.492 1.188l3.080 3.080c0.656 0.656 1.72 0.656 2.376 0s0.656-1.72 0-2.376l-2.588-2.588v-5.464c0-0.928-0.752-1.68-1.68-1.68z"
      />
</symbol>
<symbol id="icon-document" viewBox="0 0 32 32">
<path
        d="M6.082 2.082c0.693-0.693 1.633-1.082 2.612-1.082h11.521c0.398 0 0.779 0.158 1.061 0.439l6.035 6.035c0.281 0.281 0.439 0.663 0.439 1.061v18.836c0 0.98-0.389 1.919-1.082 2.612s-1.633 1.082-2.612 1.082h-15.361c-2.035 0-3.694-1.659-3.694-3.694v-22.676c0-0.98 0.389-1.92 1.082-2.612zM18.166 4h-9.472c-0.184 0-0.361 0.073-0.491 0.203s-0.203 0.307-0.203 0.491v22.676c0 0.378 0.316 0.694 0.694 0.694h15.361c0.184 0 0.361-0.073 0.491-0.203s0.203-0.307 0.203-0.491v-16.787h-5.084c-0.828 0-1.5-0.672-1.5-1.5v-5.083zM23.177 7.583l-2.011-2.011v2.011h2.011z"
      />
</symbol>
<symbol id="icon-cloud_done" viewBox="0 0 32 32">
<path
        d="M7.419 26.317l-0.134-0.012c-4.077-0.366-7.285-3.78-7.285-7.96 0-3.679 2.487-6.767 5.863-7.702 1.165-3.849 4.749-6.644 8.976-6.644 3.413 0 6.401 1.819 8.041 4.543 4.778 0.158 8.62 4.070 8.62 8.895 0 4.695-3.637 8.525-8.238 8.874l-0.113 0.009-15.73-0.003zM21.142 11.713c-0.044 0.011-0.089 0.023-0.133 0.035-0.012-0.047-0.025-0.094-0.039-0.141-0.761-2.66-3.218-4.607-6.131-4.607-3.123 0-5.722 2.238-6.269 5.193-0.070 0.376-0.106 0.764-0.106 1.16l0 0.020c-0.124-0.011-0.25-0.018-0.377-0.020-0.026-0-0.052-0.001-0.078-0.001-0.032 0-0.063 0-0.095 0.001-0.127 0.002-0.253 0.009-0.377 0.021-2.545 0.237-4.537 2.372-4.537 4.97 0 2.604 2.001 4.742 4.554 4.971l15.482 0.003c3.057-0.232 5.464-2.777 5.464-5.882 0-3.258-2.65-5.9-5.92-5.9-0.496 0-0.978 0.061-1.439 0.175z"
      />
<path
        d="M20.511 13.439c0.586 0.586 0.586 1.536 0 2.121l-5.3 5.3c-0.586 0.586-1.536 0.586-2.121 0l-2.65-2.65c-0.586-0.586-0.586-1.535 0-2.121s1.536-0.586 2.121 0l1.589 1.589 4.239-4.239c0.586-0.586 1.535-0.586 2.121 0z"
      />
</symbol>
<symbol id="icon-cloud_upload" viewBox="0 0 32 32">
<path
        d="M16.375 2.5c0.398 0 0.779 0.158 1.061 0.439l6.875 6.875c0.586 0.586 0.586 1.536 0 2.121s-1.535 0.586-2.121 0l-4.314-4.314v12.879c0 0.828-0.671 1.5-1.5 1.5s-1.5-0.672-1.5-1.5v-12.879l-4.314 4.314c-0.586 0.586-1.536 0.586-2.121 0s-0.586-1.536 0-2.121l6.875-6.875c0.281-0.281 0.663-0.439 1.061-0.439zM4 19c0.828 0 1.5 0.671 1.5 1.5v5.5c0 0.331 0.132 0.649 0.366 0.884s0.552 0.366 0.884 0.366h19.25c0.331 0 0.649-0.132 0.884-0.366s0.366-0.552 0.366-0.884v-5.5c0-0.829 0.671-1.5 1.5-1.5s1.5 0.671 1.5 1.5v5.5c0 1.127-0.448 2.208-1.245 3.005s-1.878 1.245-3.005 1.245h-19.25c-1.127 0-2.208-0.448-3.005-1.245s-1.245-1.878-1.245-3.005v-5.5c0-0.828 0.672-1.5 1.5-1.5z"
      />
</symbol>
<symbol id="icon-list" viewBox="0 0 32 32">
<path
        d="M1 6.5c0 0.828 0.672 1.5 1.5 1.5h0.013c0.828 0 1.5-0.672 1.5-1.5s-0.672-1.5-1.5-1.5h-0.013c-0.828 0-1.5 0.672-1.5 1.5zM8.708 6.5c0 0.828 0.672 1.5 1.5 1.5h20.042c0.828 0 1.5-0.672 1.5-1.5s-0.672-1.5-1.5-1.5h-20.042c-0.828 0-1.5 0.672-1.5 1.5zM1 15.75c0 0.828 0.672 1.5 1.5 1.5h0.013c0.828 0 1.5-0.672 1.5-1.5s-0.672-1.5-1.5-1.5h-0.013c-0.828 0-1.5 0.672-1.5 1.5zM8.708 15.75c0 0.828 0.672 1.5 1.5 1.5h20.042c0.828 0 1.5-0.672 1.5-1.5s-0.672-1.5-1.5-1.5h-20.042c-0.828 0-1.5 0.672-1.5 1.5zM1 25c0 0.828 0.672 1.5 1.5 1.5h0.013c0.828 0 1.5-0.672 1.5-1.5s-0.672-1.5-1.5-1.5h-0.013c-0.828 0-1.5 0.672-1.5 1.5zM8.708 25c0 0.828 0.672 1.5 1.5 1.5h20.042c0.828 0 1.5-0.672 1.5-1.5s-0.672-1.5-1.5-1.5h-20.042c-0.828 0-1.5 0.672-1.5 1.5z"
      />
</symbol>
<symbol id="icon-checklist" viewBox="0 0 32 32">
<path
        d="M8.186 4.439c-0.586-0.586-1.536-0.586-2.121 0l-2.023 2.023-0.481-0.481c-0.586-0.586-1.536-0.586-2.121 0s-0.586 1.536 0 2.121l1.542 1.542c0.586 0.586 1.536 0.586 2.121 0l3.083-3.083c0.586-0.586 0.586-1.536 0-2.121zM11.792 7.042c0 0.828 0.672 1.5 1.5 1.5h16.958c0.828 0 1.5-0.672 1.5-1.5s-0.672-1.5-1.5-1.5h-16.958c-0.828 0-1.5 0.672-1.5 1.5zM8.186 13.689c-0.586-0.586-1.536-0.586-2.121 0l-2.023 2.023-0.481-0.481c-0.586-0.586-1.536-0.586-2.121 0s-0.586 1.536 0 2.121l1.542 1.542c0.281 0.281 0.663 0.439 1.061 0.439s0.779-0.158 1.061-0.439l3.083-3.083c0.586-0.586 0.586-1.536 0-2.121zM11.792 16.292c0 0.828 0.672 1.5 1.5 1.5h16.958c0.828 0 1.5-0.672 1.5-1.5s-0.672-1.5-1.5-1.5h-16.958c-0.828 0-1.5 0.672-1.5 1.5zM8.186 22.939c-0.586-0.586-1.536-0.586-2.121 0l-2.023 2.023-0.481-0.481c-0.586-0.586-1.536-0.586-2.121 0s-0.586 1.535 0 2.121l1.542 1.542c0.586 0.586 1.536 0.586 2.121 0l3.083-3.083c0.586-0.586 0.586-1.536 0-2.121zM30.25 27.042c0.828 0 1.5-0.672 1.5-1.5s-0.672-1.5-1.5-1.5h-16.958c-0.828 0-1.5 0.671-1.5 1.5s0.672 1.5 1.5 1.5h16.958z"
      />
</symbol>
<symbol id="icon-chart" viewBox="0 0 32 32">
<path
        d="M1.939 8.939c0.586-0.586 1.536-0.586 2.121 0l7.227 7.227 5.314-5.314c0.586-0.586 1.536-0.586 2.121 0l8.277 8.277v-4.029c0-0.828 0.672-1.5 1.5-1.5s1.5 0.672 1.5 1.5v7.65c0 0.398-0.158 0.779-0.439 1.061s-0.663 0.439-1.061 0.439h-7.65c-0.828 0-1.5-0.672-1.5-1.5s0.672-1.5 1.5-1.5h4.029l-7.216-7.216-5.314 5.314c-0.586 0.586-1.536 0.586-2.121 0l-8.287-8.287c-0.586-0.586-0.586-1.536 0-2.121z"
      />
</symbol>
<symbol id="icon-attachment" viewBox="0 0 32 32">
<path
        d="M22.774 5.977c-0.627-0.626-1.478-0.978-2.364-0.977s-1.736 0.354-2.363 0.981l-10.361 10.361c-1.080 1.080-1.686 2.544-1.686 4.071s0.607 2.991 1.686 4.071c1.080 1.080 2.544 1.686 4.071 1.686s2.991-0.607 4.071-1.686l11.11-11.11c0.586-0.586 1.536-0.586 2.121 0s0.586 1.536 0 2.121l-11.11 11.11c-1.642 1.642-3.87 2.565-6.192 2.565s-4.55-0.923-6.192-2.565c-1.642-1.642-2.565-3.87-2.565-6.192s0.923-4.55 2.565-6.192l10.359-10.359c0-0-0 0 0 0s0.001-0.001 0.001-0.001c1.188-1.19 2.801-1.859 4.482-1.861s3.296 0.665 4.486 1.854 1.86 2.801 1.862 4.483c0.002 1.682-0.665 3.296-1.854 4.486l-10.385 10.361c-0 0-0.001 0.001-0.001 0.001s0-0 0 0c-0.735 0.734-1.731 1.147-2.77 1.147s-2.036-0.413-2.771-1.148-1.148-1.732-1.148-2.771c0-1.039 0.413-2.036 1.148-2.771l10.264-10.252c0.586-0.585 1.536-0.585 2.121 0.001s0.585 1.536-0.001 2.121l-10.263 10.251c-0.172 0.172-0.269 0.406-0.269 0.65s0.097 0.477 0.269 0.65c0.172 0.172 0.406 0.269 0.65 0.269s0.477-0.097 0.65-0.269l10.383-10.359c0-0 0.001-0.001 0.001-0.001 0.626-0.627 0.977-1.477 0.976-2.363s-0.354-1.736-0.981-2.363z"
      />
</symbol>
<symbol id="icon-logout" viewBox="0 0 32 32">
<path
        d="M7.528 6.5h5.056c0.829 0 1.5-0.672 1.5-1.5s-0.671-1.5-1.5-1.5h-5.056c-1.068 0-2.093 0.424-2.848 1.18s-1.18 1.78-1.18 2.848v17.694c0 1.068 0.424 2.093 1.18 2.848s1.78 1.18 2.848 1.18h5.056c0.829 0 1.5-0.672 1.5-1.5s-0.671-1.5-1.5-1.5h-5.056c-0.273 0-0.534-0.108-0.727-0.301s-0.301-0.454-0.301-0.727v-17.694c0-0.273 0.108-0.534 0.301-0.727s0.454-0.301 0.727-0.301zM20.37 8.995c-0.586 0.586-0.586 1.536 0 2.121l3.759 3.759h-11.545c-0.828 0-1.5 0.672-1.5 1.5s0.672 1.5 1.5 1.5h11.545l-3.759 3.759c-0.586 0.586-0.586 1.535 0 2.121s1.535 0.586 2.121 0l6.319-6.319c0.586-0.586 0.586-1.536 0-2.121l-6.319-6.319c-0.586-0.586-1.535-0.586-2.121 0z"
      />
</symbol>
<symbol id="icon-maximise" viewBox="0 0 32 32">
<path
        d="M17.675 11.953c-0.586 0.586-0.586 1.536-0 2.121s1.536 0.586 2.121 0l7.453-7.453v4.962c0 0.829 0.672 1.5 1.5 1.5s1.5-0.671 1.5-1.5v-8.583c0-0.828-0.672-1.5-1.5-1.5h-8.583c-0.828 0-1.5 0.672-1.5 1.5s0.672 1.5 1.5 1.5h4.962l-7.453 7.453z"
      />
<path
        d="M11.583 30.25c0.829 0 1.5-0.672 1.5-1.5s-0.671-1.5-1.5-1.5h-4.962l7.453-7.453c0.586-0.586 0.586-1.535 0-2.121s-1.536-0.586-2.121 0l-7.453 7.453v-4.962c0-0.828-0.672-1.5-1.5-1.5s-1.5 0.672-1.5 1.5v8.583c0 0.828 0.672 1.5 1.5 1.5h8.583z"
      />
</symbol>
<symbol id="icon-minimise" viewBox="0 0 32 32">
<path
        d="M29.811 1.939c-0.586-0.586-1.536-0.586-2.121-0l-7.453 7.453v-4.962c0-0.828-0.672-1.5-1.5-1.5s-1.5 0.672-1.5 1.5v8.583c0 0.828 0.672 1.5 1.5 1.5h8.583c0.828 0 1.5-0.672 1.5-1.5s-0.672-1.5-1.5-1.5h-4.962l7.453-7.453c0.586-0.586 0.586-1.536 0-2.121zM2.931 18.736c0 0.828 0.672 1.5 1.5 1.5h4.962l-7.453 7.453c-0.586 0.586-0.586 1.535-0 2.121s1.536 0.586 2.121 0l7.453-7.453v4.962c0 0.829 0.672 1.5 1.5 1.5s1.5-0.671 1.5-1.5v-8.583c0-0.828-0.672-1.5-1.5-1.5h-8.583c-0.828 0-1.5 0.672-1.5 1.5z"
      />
</symbol>
<symbol id="icon-keyboard_arrow_up" viewBox="0 0 32 32">
<path
        d="M25.061 10.939c0.586 0.586 0.586 1.536 0 2.121l-8 8c-0.586 0.586-1.536 0.586-2.121 0l-8-8c-0.586-0.586-0.586-1.536 0-2.121s1.536-0.586 2.121 0l6.939 6.939 6.939-6.939c0.586-0.586 1.536-0.586 2.121 0z"
      />
</symbol>
<symbol id="icon-keyboard_arrow_down" viewBox="0 0 32 32">
<path
        d="M25.061 10.939c0.586 0.586 0.586 1.536 0 2.121l-8 8c-0.586 0.586-1.536 0.586-2.121 0l-8-8c-0.586-0.586-0.586-1.536 0-2.121s1.536-0.586 2.121 0l6.939 6.939 6.939-6.939c0.586-0.586 1.536-0.586 2.121 0z"
      />
</symbol>
<symbol id="icon-folder" viewBox="0 0 32 32">
<path
        d="M13.778 4c0.806 0 1.577 0.324 2.141 0.899l1.339 1.365h7.572c1.474 0 2.753 0.616 3.706 1.625 0.927 0.982 1.463 2.234 1.463 3.638v11.211c0 1.404-0.537 2.656-1.463 3.638-0.952 1.009-2.231 1.625-3.706 1.625h-17.662c-1.474 0-2.753-0.616-3.705-1.625-0.927-0.982-1.463-2.234-1.463-3.638v-13.474c0-1.404 0.537-2.656 1.463-3.638 0.952-1.009 2.231-1.625 3.705-1.625h6.61zM16 9.264l-2.221-2.264h-6.609c-0.586 0-1.093 0.228-1.524 0.684s-0.645 0.982-0.645 1.579v13.474c0 0.597 0.215 1.123 0.645 1.579s0.938 0.684 1.524 0.684h17.662c0.586 0 1.093-0.228 1.524-0.684s0.645-0.982 0.645-1.579v-11.211c0-0.597-0.215-1.123-0.645-1.579s-0.938-0.684-1.524-0.684h-8.831z"
      />
</symbol>
<symbol id="icon-phone" viewBox="0 0 32 32">
<path
        d="M9.107 4c-0.611 0-1.107 0.496-1.107 1.107v20.857c0 0.611 0.496 1.107 1.107 1.107h13.036c0.611 0 1.107-0.496 1.107-1.107v-20.857c0-0.611-0.496-1.107-1.107-1.107h-13.036zM5 5.107c0-2.268 1.839-4.107 4.107-4.107h13.036c2.268 0 4.107 1.839 4.107 4.107v20.857c0 2.268-1.839 4.107-4.107 4.107h-13.036c-2.268 0-4.107-1.839-4.107-4.107v-20.857zM14.125 23.357c0 0.828 0.672 1.5 1.5 1.5h0.011c0.828 0 1.5-0.672 1.5-1.5s-0.672-1.5-1.5-1.5h-0.011c-0.828 0-1.5 0.672-1.5 1.5z"
      />
</symbol>
<symbol id="icon-cloud_download" viewBox="0 0 32 32">
<path
        d="M7.419 27.317l-0.134-0.012c-4.077-0.366-7.285-3.78-7.285-7.96 0-3.679 2.487-6.767 5.863-7.702 1.165-3.849 4.749-6.644 8.976-6.644 3.413 0 6.401 1.819 8.041 4.543 4.778 0.158 8.62 4.070 8.62 8.895 0 4.695-3.637 8.525-8.238 8.874l-0.113 0.009-15.73-0.003zM21.142 12.713c-0.044 0.011-0.089 0.023-0.133 0.035-0.012-0.047-0.025-0.094-0.039-0.141-0.761-2.66-3.218-4.607-6.131-4.607-3.123 0-5.722 2.238-6.269 5.193-0.070 0.376-0.106 0.764-0.106 1.16l0 0.020c-0.124-0.011-0.25-0.018-0.377-0.020-0.026-0-0.052-0.001-0.078-0.001-0.032 0-0.063 0-0.095 0.001-0.127 0.002-0.253 0.009-0.377 0.021-2.545 0.237-4.537 2.372-4.537 4.97 0 2.604 2.001 4.742 4.554 4.971l15.482 0.003c3.057-0.232 5.464-2.777 5.464-5.882 0-3.258-2.65-5.9-5.92-5.9-0.496 0-0.978 0.061-1.439 0.175z"
      />
<path
        d="M20.24 16.24c0.42 0.436 0.407 1.129-0.029 1.549l-4.451 4.289c-0.424 0.409-1.096 0.409-1.52 0l-4.451-4.289c-0.436-0.42-0.448-1.113-0.029-1.549s1.113-0.448 1.548-0.029l2.581 2.487-0.031-5.295c-0.004-0.605 0.484-1.098 1.089-1.101s1.098 0.484 1.102 1.089l0.031 5.337 2.611-2.516c0.436-0.42 1.129-0.407 1.548 0.029z"
      />
</symbol>
<symbol id="icon-call" viewBox="0 0 32 32">
<path
        d="M26.567 17.502c0.040-0.002 0.080-0.002 0.121-0.002 1.117 0 2.211 0.404 3.061 1.256 0.846 0.848 1.249 1.937 1.251 3.050v4.63c0 0.868-0.171 2.078-1.030 3.101-0.944 1.124-2.231 1.462-3.282 1.462-7.018 0-13.11-2.555-18.121-7.567s-7.567-11.104-7.567-18.121c0-1.051 0.338-2.338 1.462-3.282 1.023-0.859 2.233-1.030 3.101-1.030h4.625c1.117 0 2.211 0.404 3.061 1.256 0.846 0.848 1.249 1.937 1.251 3.050v0.005c0 1.311 0.201 2.552 0.597 3.739 0.007 0.021 0.014 0.042 0.020 0.063 0.207 0.67 0.297 1.462 0.107 2.3-0.193 0.85-0.629 1.548-1.164 2.083-0.046 0.046-0.093 0.090-0.142 0.133l-0.738 0.648c1.184 1.794 2.711 3.305 4.61 4.541l0.477-0.607c0.074-0.094 0.153-0.183 0.237-0.268 0.849-0.849 1.941-1.254 3.058-1.254h0.007c0.21 0 0.809-0 1.457 0.243 1.126 0.367 2.301 0.559 3.539 0.57zM26.688 20.503c-0.003 0-0.006 0-0.009 0-1.017-0.001-2.009-0.099-2.977-0.296-0.576-0.117-1.143-0.269-1.701-0.455-0.083-0.042-0.229-0.063-0.437-0.063-0.375 0-0.687 0.125-0.937 0.375l-1.067 1.358c-0.581 0.74-1.605 0.983-2.42 0.513-3.029-1.745-5.382-4.068-7.057-6.969-0.448-0.776-0.241-1.749 0.432-2.341l1.424-1.251c0.375-0.375 0.479-0.834 0.312-1.375-0.501-1.501-0.751-3.063-0.751-4.688-0.001-0.375-0.126-0.687-0.375-0.937s-0.562-0.375-0.937-0.375h-4.625c-1.042 0-1.563 0.437-1.563 1.312 0 6.208 2.229 11.541 6.688 16s9.792 6.688 16 6.688c0.875 0 1.312-0.521 1.312-1.563v-4.625c-0.001-0.375-0.126-0.687-0.375-0.937-0.247-0.248-0.556-0.373-0.927-0.375-0.003 0-0.006 0-0.009 0v0l-0.001 0.003z"
      />
</symbol>
<symbol id="icon-view" viewBox="0 0 32 32">
<path
        d="M16 22c3.314 0 6-2.686 6-6s-2.686-6-6-6c-3.314 0-6 2.686-6 6s2.686 6 6 6zM19 16c0 1.657-1.343 3-3 3s-3-1.343-3-3c0-1.657 1.343-3 3-3s3 1.343 3 3z"
      />
<path
        d="M16 5c-9.472 0-13.896 7.827-15.372 11.165-0.185 0.419-0.169 0.9 0.045 1.305 0.913 1.733 2.824 4.201 5.413 6.246 2.594 2.049 6.008 3.784 9.914 3.784 8.364 0 13.253-6.675 15.275-9.939 0.261-0.421 0.297-0.944 0.097-1.396-1.476-3.338-5.899-11.165-15.372-11.165zM7.945 21.362c-1.951-1.542-3.429-3.338-4.258-4.666 1.604-3.303 5.292-8.697 12.312-8.697 6.992 0 10.679 5.351 12.293 8.658-2.115 3.215-6.107 7.842-12.293 7.842-3.006 0-5.781-1.342-8.055-3.138z"
      />
</symbol>
<symbol id="icon-tune" viewBox="0 0 32 32">
<path
        d="M12.5 8c0-0.828 0.672-1.5 1.5-1.5h15c0.828 0 1.5 0.672 1.5 1.5s-0.672 1.5-1.5 1.5h-15c-0.828 0-1.5-0.672-1.5-1.5z"
      />
<path
        d="M3.5 24c0-0.828 0.672-1.5 1.5-1.5h14c0.828 0 1.5 0.672 1.5 1.5s-0.672 1.5-1.5 1.5h-14c-0.828 0-1.5-0.672-1.5-1.5z"
      />
<path
        d="M24 20.5c-1.933 0-3.5 1.567-3.5 3.5s1.567 3.5 3.5 3.5c1.933 0 3.5-1.567 3.5-3.5s-1.567-3.5-3.5-3.5zM17.5 24c0-3.59 2.91-6.5 6.5-6.5s6.5 2.91 6.5 6.5c0 3.59-2.91 6.5-6.5 6.5s-6.5-2.91-6.5-6.5z"
      />
<path
        d="M8 4.5c-1.933 0-3.5 1.567-3.5 3.5s1.567 3.5 3.5 3.5c1.933 0 3.5-1.567 3.5-3.5s-1.567-3.5-3.5-3.5zM1.5 8c0-3.59 2.91-6.5 6.5-6.5s6.5 2.91 6.5 6.5c0 3.59-2.91 6.5-6.5 6.5s-6.5-2.91-6.5-6.5z"
      />
</symbol>
<symbol id="icon-cloud" viewBox="0 0 32 32">
<path
        d="M7.419 26.317l-0.134-0.012c-4.077-0.366-7.285-3.78-7.285-7.96 0-3.679 2.487-6.767 5.863-7.702 1.165-3.849 4.749-6.644 8.976-6.644 3.413 0 6.401 1.819 8.041 4.543 4.778 0.158 8.62 4.070 8.62 8.895 0 4.695-3.637 8.525-8.238 8.874l-0.113 0.009-15.73-0.003zM21.142 11.713c-0.044 0.011-0.089 0.023-0.133 0.035-0.012-0.047-0.025-0.094-0.039-0.141-0.761-2.66-3.218-4.607-6.131-4.607-3.123 0-5.722 2.238-6.269 5.193-0.070 0.376-0.106 0.764-0.106 1.16l0 0.020c-0.124-0.011-0.25-0.018-0.377-0.020-0.026-0-0.052-0.001-0.078-0.001-0.032 0-0.063 0-0.095 0.001-0.127 0.002-0.253 0.009-0.377 0.021-2.545 0.237-4.537 2.372-4.537 4.97 0 2.604 2.001 4.742 4.554 4.971l15.482 0.003c3.057-0.232 5.464-2.777 5.464-5.882 0-3.258-2.65-5.9-5.92-5.9-0.496 0-0.978 0.061-1.439 0.175z"
      />
</symbol>
<symbol id="icon-photo" viewBox="0 0 32 32">
<path
        d="M6.25 5c-0.69 0-1.25 0.56-1.25 1.25v19.25c0 0.69 0.56 1.25 1.25 1.25h0.754l12.054-12.054c0.797-0.797 1.878-1.245 3.005-1.245s2.208 0.448 3.005 1.244l1.683 1.683v-10.129c0-0.69-0.56-1.25-1.25-1.25h-19.25zM26.75 20.621l-3.804-3.804c0-0 0 0 0 0-0.234-0.234-0.552-0.366-0.884-0.366s-0.649 0.132-0.884 0.366c0 0 0 0 0 0l-9.933 9.933h14.254c0.69 0 1.25-0.56 1.25-1.25v-4.879zM2 6.25c0-2.347 1.903-4.25 4.25-4.25h19.25c2.347 0 4.25 1.903 4.25 4.25v19.25c0 2.347-1.903 4.25-4.25 4.25h-19.25c-2.347 0-4.25-1.903-4.25-4.25v-19.25zM11.75 10.5c-0.69 0-1.25 0.56-1.25 1.25s0.56 1.25 1.25 1.25c0.69 0 1.25-0.56 1.25-1.25s-0.56-1.25-1.25-1.25zM7.5 11.75c0-2.347 1.903-4.25 4.25-4.25s4.25 1.903 4.25 4.25c0 2.347-1.903 4.25-4.25 4.25s-4.25-1.903-4.25-4.25z"
      />
</symbol>
<symbol id="icon-flag" viewBox="0 0 32 32">
<path
        d="M5.591 2.264c1.017-0.407 2.521-0.764 4.659-0.764 2.259 0 4.13 0.749 5.726 1.387 0.027 0.011 0.055 0.022 0.082 0.033 1.668 0.667 3.053 1.205 4.693 1.205 1.8 0 2.921-0.299 3.544-0.549 0.313-0.125 0.508-0.241 0.607-0.307 0.042-0.028 0.067-0.047 0.077-0.055 0.428-0.399 1.052-0.513 1.596-0.288 0.561 0.232 0.926 0.779 0.926 1.386v15.75c0 0.398-0.158 0.779-0.439 1.061l-1.061-1.061c1.061 1.061 1.060 1.061 1.059 1.062l-0.005 0.005-0.007 0.007-0.016 0.015c-0.011 0.011-0.024 0.023-0.038 0.035-0.028 0.026-0.063 0.056-0.104 0.090-0.082 0.067-0.189 0.149-0.324 0.239-0.27 0.18-0.65 0.393-1.157 0.596-1.017 0.407-2.521 0.764-4.659 0.764-2.259 0-4.13-0.749-5.726-1.387-0.027-0.011-0.055-0.022-0.082-0.033-1.668-0.667-3.053-1.205-4.693-1.205-1.8 0-2.92 0.299-3.544 0.549-0.075 0.030-0.144 0.060-0.206 0.088v8.363c0 0.828-0.672 1.5-1.5 1.5s-1.5-0.672-1.5-1.5v-24.937c0-0.398 0.158-0.779 0.439-1.061l1.061 1.061c-1.061-1.061-1.060-1.061-1.059-1.062l0.002-0.002 0.003-0.003 0.007-0.007 0.016-0.015c0.011-0.011 0.024-0.023 0.038-0.035 0.028-0.026 0.063-0.056 0.104-0.090 0.082-0.067 0.189-0.149 0.324-0.239 0.271-0.18 0.65-0.393 1.157-0.596zM6.5 5.137v12.571c0.945-0.264 2.176-0.458 3.75-0.458 2.259 0 4.13 0.749 5.726 1.387 0.027 0.011 0.055 0.022 0.082 0.033 1.668 0.667 3.053 1.205 4.693 1.205 1.8 0 2.921-0.299 3.544-0.549 0.075-0.030 0.144-0.060 0.206-0.088v-12.571c-0.945 0.264-2.176 0.458-3.75 0.458-2.259 0-4.13-0.749-5.726-1.387-0.027-0.011-0.055-0.022-0.082-0.033-1.668-0.667-3.053-1.205-4.693-1.205-1.8 0-2.92 0.299-3.544 0.549-0.075 0.030-0.144 0.060-0.206 0.088zM24.942 3.249l0.003-0.003c-0.002 0.002-0.003 0.003-0.005 0.005z"
      />
</symbol>
<symbol id="icon-link" viewBox="0 0 32 32">
<path
        d="M9.375 11.5h2.55c0.828 0 1.5-0.672 1.5-1.5s-0.672-1.5-1.5-1.5h-2.55c-2.089 0-4.092 0.83-5.568 2.306s-2.307 3.48-2.307 5.569 0.83 4.092 2.307 5.569c1.477 1.477 3.48 2.306 5.568 2.306h2.55c0.828 0 1.5-0.672 1.5-1.5s-0.672-1.5-1.5-1.5h-2.55c-1.293 0-2.533-0.514-3.447-1.428s-1.428-2.154-1.428-3.447 0.514-2.533 1.428-3.447c0.914-0.914 2.154-1.428 3.447-1.428zM18.075 10c0 0.828 0.672 1.5 1.5 1.5h2.55c1.293 0 2.533 0.514 3.447 1.428s1.428 2.154 1.428 3.447-0.514 2.533-1.428 3.447c-0.914 0.914-2.154 1.428-3.447 1.428h-2.55c-0.828 0-1.5 0.672-1.5 1.5s0.672 1.5 1.5 1.5h2.55c2.089 0 4.092-0.83 5.569-2.306s2.306-3.48 2.306-5.569-0.83-4.092-2.306-5.569c-1.477-1.477-3.48-2.306-5.569-2.306h-2.55c-0.828 0-1.5 0.672-1.5 1.5zM9.15 16.375c0 0.828 0.672 1.5 1.5 1.5h10.2c0.828 0 1.5-0.672 1.5-1.5s-0.672-1.5-1.5-1.5h-10.2c-0.828 0-1.5 0.672-1.5 1.5z"
      />
</symbol>
<symbol id="icon-tag" viewBox="0 0 32 32">
<path
        d="M3 1.5c-0.828 0-1.5 0.672-1.5 1.5v13.003c0 0.388 0.15 0.76 0.419 1.040l11.615 12.080c1.765 1.836 4.673 1.836 6.438 0l8.227-8.556c1.734-1.803 1.734-4.723 0-6.526l-11.615-12.080c-0.283-0.294-0.673-0.46-1.081-0.46h-12.503zM4.5 15.399v-10.899h10.364l11.173 11.62c0.617 0.642 0.617 1.726 0 2.368l-8.227 8.556c-0.585 0.608-1.528 0.608-2.114 0l-11.197-11.645zM9.495 7h0.011c1.378 0 2.495 1.119 2.495 2.5s-1.117 2.5-2.495 2.5h-0.011c-1.378 0-2.495-1.119-2.495-2.5s1.117-2.5 2.495-2.5z"
      />
</symbol>
<symbol id="icon-arrow_back" viewBox="0 0 32 32">
<path
        d="M17.061 4.939c-0.586-0.586-1.536-0.586-2.121 0l-10 10c-0.281 0.281-0.439 0.663-0.439 1.061s0.158 0.779 0.439 1.061l10 10c0.586 0.586 1.536 0.586 2.121 0s0.586-1.536 0-2.121l-7.439-7.439h16.379c0.828 0 1.5-0.672 1.5-1.5s-0.672-1.5-1.5-1.5h-16.379l7.439-7.439c0.586-0.586 0.586-1.536 0-2.121z"
      />
</symbol>
<symbol id="icon-arrow_forward" viewBox="0 0 32 32">
<path
        d="M14.939 4.939c0.586-0.586 1.536-0.586 2.121 0l10 10c0.281 0.281 0.439 0.663 0.439 1.061s-0.158 0.779-0.439 1.061l-10 10c-0.586 0.586-1.536 0.586-2.121 0s-0.586-1.536 0-2.121l7.439-7.439h-16.379c-0.828 0-1.5-0.672-1.5-1.5s0.672-1.5 1.5-1.5h16.379l-7.439-7.439c-0.586-0.586-0.586-1.536 0-2.121z"
      />
</symbol>
<symbol id="icon-x_circle" viewBox="0 0 32 32">
<path
        d="M24.132 7.868c-4.491-4.491-11.772-4.491-16.263 0s-4.491 11.772 0 16.263c4.491 4.491 11.772 4.491 16.263 0s4.491-11.772 0-16.263zM5.747 5.747c5.663-5.663 14.843-5.663 20.506 0s5.663 14.843 0 20.506c-5.663 5.663-14.843 5.663-20.506 0s-5.663-14.843 0-20.506zM11.404 11.404c-0.586 0.586-0.586 1.536 0 2.121l2.475 2.475-2.475 2.475c-0.586 0.586-0.586 1.535 0 2.121s1.536 0.586 2.121 0l2.475-2.475 2.475 2.475c0.586 0.586 1.535 0.586 2.121 0s0.586-1.535 0-2.121l-2.475-2.475 2.475-2.475c0.586-0.586 0.586-1.536 0-2.121s-1.535-0.586-2.121 0l-2.475 2.475-2.475-2.475c-0.586-0.586-1.536-0.586-2.121 0z"
      />
</symbol>
<symbol id="icon-check" viewBox="0 0 32 32">
<path
        d="M27.561 6.939c0.586 0.586 0.586 1.536 0 2.121l-15 15c-0.586 0.586-1.536 0.586-2.121 0l-6.5-6.5c-0.586-0.586-0.586-1.536 0-2.121s1.536-0.586 2.121 0l5.439 5.439 13.939-13.939c0.586-0.586 1.536-0.586 2.121 0z"
      />
</symbol>
<symbol id="icon-notifications" viewBox="0 0 32 32">
<path
        d="M15.875 4.5c1.702 0 3.334 0.676 4.537 1.879s1.879 2.835 1.879 4.537c0 4.839 1.039 8.060 2.162 10.119 0.048 0.087 0.095 0.173 0.143 0.256h-17.444c0.048-0.083 0.096-0.168 0.143-0.256 1.123-2.059 2.162-5.28 2.162-10.119 0-1.702 0.676-3.334 1.879-4.537s2.835-1.879 4.537-1.879zM28.602 21.557c-0-0-0-0-0.001-0-0.008-0.006-0.029-0.022-0.061-0.049-0.065-0.054-0.176-0.153-0.32-0.305-0.286-0.302-0.703-0.816-1.133-1.604-0.856-1.569-1.796-4.286-1.796-8.683 0-2.498-0.992-4.893-2.758-6.659s-4.161-2.758-6.659-2.758c-2.498 0-4.893 0.992-6.659 2.758s-2.758 4.161-2.758 6.659c0 4.397-0.94 7.114-1.796 8.683-0.43 0.788-0.847 1.302-1.133 1.604-0.143 0.151-0.255 0.25-0.32 0.305-0.033 0.027-0.054 0.043-0.061 0.049-0 0-0.001 0-0.001 0-0.536 0.37-0.773 1.044-0.584 1.669 0.192 0.633 0.775 1.065 1.436 1.065h23.75c0.661 0 1.244-0.433 1.436-1.065 0.189-0.625-0.048-1.299-0.584-1.669zM12.909 26.755c-0.726 0.399-0.991 1.311-0.592 2.037 0.35 0.637 0.865 1.168 1.491 1.538s1.339 0.565 2.067 0.565c0.727 0 1.441-0.195 2.067-0.565s1.141-0.901 1.491-1.538c0.399-0.726 0.134-1.638-0.592-2.037s-1.638-0.134-2.037 0.592c-0.091 0.166-0.226 0.305-0.389 0.402s-0.35 0.148-0.539 0.148c-0.19 0-0.376-0.051-0.54-0.148s-0.298-0.235-0.389-0.402c-0.399-0.726-1.311-0.991-2.037-0.592z"
      />
</symbol>
<symbol id="icon-share" viewBox="0 0 32 32">
<path
        d="M24 21.437c1.083 0 2 0.385 2.751 1.156s1.126 1.677 1.125 2.719c0 1.083-0.385 2.010-1.156 2.781s-1.677 1.156-2.719 1.156-1.948-0.385-2.719-1.156c-0.771-0.771-1.156-1.698-1.156-2.781 0-0.417 0.021-0.708 0.063-0.875l-9.437-5.5c-0.792 0.709-1.709 1.063-2.751 1.063-1.083 0-2.021-0.396-2.812-1.188s-1.187-1.729-1.188-2.812c-0.001-1.083 0.395-2.020 1.188-2.812s1.73-1.188 2.812-1.188c1.042 0 1.959 0.354 2.751 1.063l9.375-5.437c-0.083-0.417-0.125-0.729-0.125-0.937 0-1.083 0.396-2.021 1.188-2.812s1.729-1.187 2.812-1.188c1.083-0.001 2.020 0.395 2.812 1.188s1.188 1.73 1.188 2.812c0 1.082-0.396 2.019-1.188 2.812s-1.729 1.189-2.812 1.188c-1 0-1.917-0.375-2.751-1.125l-9.375 5.5c0.083 0.417 0.125 0.729 0.125 0.937s-0.042 0.52-0.125 0.937l9.5 5.5c0.75-0.667 1.625-1 2.625-1l-0.001-0.001z"
      />
</symbol>
<symbol id="icon-check_circle" viewBox="0 0 32 32">
<path
        d="M24.132 7.868c-4.491-4.491-11.773-4.491-16.264 0s-4.491 11.772 0 16.263c4.491 4.491 11.772 4.491 16.264 0s4.491-11.772 0-16.263zM5.747 5.747c5.663-5.663 14.844-5.663 20.506 0s5.663 14.843 0 20.506-14.844 5.663-20.506 0c-5.663-5.663-5.663-14.843 0-20.506zM23.061 11.939c-0.586-0.586-1.536-0.586-2.121 0l-6.465 6.465-2.904-2.956c-0.581-0.591-1.53-0.599-2.121-0.019s-0.599 1.53-0.019 2.121l3.964 4.035c0.28 0.285 0.663 0.447 1.063 0.449s0.784-0.156 1.067-0.439l7.536-7.535c0.586-0.586 0.586-1.536 0-2.121z"
      />
</symbol>
<symbol id="icon-delete" viewBox="0 0 32 32">
<path
        d="M2.5 7c0-0.828 0.672-1.5 1.5-1.5h24c0.828 0 1.5 0.672 1.5 1.5s-0.672 1.5-1.5 1.5h-24c-0.828 0-1.5-0.672-1.5-1.5z"
      />
<path
        d="M7 5.5c0.828 0 1.5 0.672 1.5 1.5v20.125c0 0.287 0.14 0.662 0.422 0.977 0.292 0.326 0.557 0.398 0.65 0.398h12.857c0.093 0 0.358-0.072 0.65-0.398 0.282-0.315 0.422-0.69 0.422-0.977v-20.125c0-0.828 0.672-1.5 1.5-1.5s1.5 0.672 1.5 1.5v20.125c0 1.151-0.503 2.213-1.186 2.977-0.673 0.752-1.693 1.398-2.886 1.398h-12.857c-1.193 0-2.213-0.646-2.886-1.398-0.683-0.763-1.186-1.826-1.186-2.977v-20.125c0-0.828 0.672-1.5 1.5-1.5z"
      />
<path
        d="M12.842 3.842c-0.258 0.258-0.342 0.521-0.342 0.658v2.5c0 0.828-0.672 1.5-1.5 1.5s-1.5-0.672-1.5-1.5v-2.5c0-1.113 0.541-2.1 1.221-2.779s1.667-1.221 2.779-1.221h5c1.113 0 2.1 0.541 2.779 1.221s1.221 1.667 1.221 2.779v2.5c0 0.828-0.672 1.5-1.5 1.5s-1.5-0.672-1.5-1.5v-2.5c0-0.137-0.084-0.4-0.342-0.658s-0.521-0.342-0.658-0.342h-5c-0.137 0-0.4 0.084-0.658 0.342z"
      />
<path
        d="M13 12.5c0.828 0 1.5 0.672 1.5 1.5v9c0 0.828-0.672 1.5-1.5 1.5s-1.5-0.672-1.5-1.5v-9c0-0.828 0.672-1.5 1.5-1.5z"
      />
<path
        d="M19 12.5c0.828 0 1.5 0.672 1.5 1.5v9c0 0.828-0.672 1.5-1.5 1.5s-1.5-0.672-1.5-1.5v-9c0-0.828 0.672-1.5 1.5-1.5z"
      />
</symbol>
<symbol id="icon-info" viewBox="0 0 32 32">
<path
        d="M24.132 7.868c-4.491-4.491-11.772-4.491-16.263 0s-4.491 11.772 0 16.263c4.491 4.491 11.772 4.491 16.263 0s4.491-11.772 0-16.263zM5.747 5.747c5.663-5.663 14.843-5.663 20.506 0s5.663 14.844 0 20.506c-5.663 5.663-14.843 5.663-20.506 0s-5.663-14.844 0-20.506z"
      />
<path
        d="M17.5 21.5c0 0.828-0.672 1.5-1.5 1.5s-1.5-0.672-1.5-1.5v-6c0-0.828 0.671-1.5 1.5-1.5s1.5 0.672 1.5 1.5v6z"
      />
<path
        d="M16 8.5c0.828 0 1.5 0.672 1.5 1.5s-0.672 1.5-1.5 1.5c-0.829 0-1.5-0.672-1.5-1.5s0.671-1.5 1.5-1.5z"
      />
</symbol>
<symbol id="icon-Unlink" viewBox="0 0 32 32">
<path
        d="M11.35 2.5c-0.828 0-1.5 0.672-1.5 1.5v3.675c0 0.828 0.672 1.5 1.5 1.5s1.5-0.672 1.5-1.5v-3.675c0-0.828-0.672-1.5-1.5-1.5zM17.010 4.721l-2.123 2.111c-0.588 0.584-0.59 1.534-0.006 2.121s1.534 0.59 2.121 0.006l2.098-2.086c0.863-0.828 2.012-1.291 3.208-1.291 1.199 0 2.351 0.465 3.214 1.297 0.881 0.853 1.387 2.021 1.408 3.247s-0.446 2.411-1.298 3.294c-0.046 0.048-0.088 0.098-0.127 0.15l-1.933 1.922c-0.587 0.584-0.59 1.534-0.006 2.121s1.534 0.59 2.121 0.006l2.107-2.095c0.070-0.070 0.132-0.145 0.186-0.225 1.284-1.431 1.982-3.296 1.95-5.225-0.034-2.021-0.869-3.946-2.322-5.352l-0.002-0.002c-1.423-1.372-3.322-2.138-5.298-2.138s-3.876 0.767-5.298 2.138zM2.5 11.35c0 0.828 0.672 1.5 1.5 1.5h3.675c0.828 0 1.5-0.672 1.5-1.5s-0.672-1.5-1.5-1.5h-3.675c-0.828 0-1.5 0.672-1.5 1.5zM8.944 14.883c-0.586-0.586-1.536-0.586-2.121 0l-2.113 2.114c-1.404 1.455-2.173 3.407-2.139 5.428s0.869 3.946 2.322 5.352l0.002 0.002c1.423 1.372 3.322 2.139 5.298 2.139s3.876-0.767 5.298-2.139l2.114-2.114c0.586-0.586 0.586-1.535 0-2.121s-1.536-0.586-2.121 0l-2.084 2.084c-0.862 0.827-2.011 1.289-3.207 1.289-1.199 0-2.351-0.465-3.215-1.297-0.881-0.853-1.387-2.021-1.408-3.247-0.021-1.222 0.443-2.403 1.289-3.285l2.085-2.085c0.586-0.586 0.586-1.536 0-2.121zM23.325 21.15c0 0.828 0.672 1.5 1.5 1.5h3.675c0.828 0 1.5-0.672 1.5-1.5s-0.672-1.5-1.5-1.5h-3.675c-0.828 0-1.5 0.671-1.5 1.5zM21.15 23.325c-0.828 0-1.5 0.671-1.5 1.5v3.675c0 0.828 0.672 1.5 1.5 1.5s1.5-0.672 1.5-1.5v-3.675c0-0.829-0.672-1.5-1.5-1.5z"
      />
</symbol>
<symbol id="icon-label" viewBox="0 0 32 32">
<path
        d="M1 8v16c0 1.657 1.343 3 3 3h17.25c0.938 0 1.823-0.439 2.39-1.187l5.75-7.579c0.78-1.028 0.815-2.439 0.087-3.505l-5.75-8.421c-0.559-0.819-1.486-1.308-2.477-1.308h-17.25c-1.657 0-3 1.343-3 3zM21.25 24h-17.25v-16h17.25l5.75 8.421-5.75 7.579z"
      />
</symbol>
<symbol id="icon-sun" viewBox="0 0 32 32">
<path
        d="M16.125 0.75c-0.829 0-1.5 0.672-1.5 1.5v1.542c0 0.828 0.671 1.5 1.5 1.5s1.5-0.672 1.5-1.5v-1.542c0-0.828-0.672-1.5-1.5-1.5zM5.253 5.253c-0.586 0.586-0.586 1.536 0 2.121l1.090 1.090c0.586 0.586 1.536 0.586 2.121 0s0.586-1.536 0-2.121l-1.090-1.090c-0.586-0.586-1.536-0.586-2.121 0zM26.997 5.253c-0.586-0.586-1.535-0.586-2.121 0l-1.090 1.090c-0.586 0.586-0.586 1.536 0 2.121s1.536 0.586 2.121 0l1.090-1.090c0.586-0.586 0.586-1.536 0-2.121zM16.125 11.458c-2.577 0-4.667 2.089-4.667 4.667s2.089 4.667 4.667 4.667c2.577 0 4.667-2.089 4.667-4.667s-2.089-4.667-4.667-4.667zM8.458 16.125c0-4.234 3.432-7.667 7.667-7.667s7.667 3.433 7.667 7.667c0 4.234-3.432 7.667-7.667 7.667s-7.667-3.433-7.667-7.667zM0.75 16.125c0 0.828 0.672 1.5 1.5 1.5h1.542c0.828 0 1.5-0.672 1.5-1.5s-0.672-1.5-1.5-1.5h-1.542c-0.828 0-1.5 0.672-1.5 1.5zM26.958 16.125c0 0.828 0.672 1.5 1.5 1.5h1.542c0.828 0 1.5-0.672 1.5-1.5s-0.672-1.5-1.5-1.5h-1.542c-0.828 0-1.5 0.672-1.5 1.5zM8.464 23.786c-0.586-0.586-1.536-0.586-2.121 0l-1.090 1.090c-0.586 0.586-0.586 1.535 0 2.121s1.536 0.586 2.121 0l1.090-1.090c0.586-0.586 0.586-1.536 0-2.121zM23.786 23.786c-0.586 0.586-0.586 1.536 0 2.121l1.090 1.090c0.586 0.586 1.535 0.586 2.121 0s0.586-1.535 0-2.121l-1.090-1.090c-0.586-0.586-1.536-0.586-2.121 0zM16.125 26.958c-0.829 0-1.5 0.672-1.5 1.5v1.542c0 0.828 0.671 1.5 1.5 1.5s1.5-0.672 1.5-1.5v-1.542c0-0.828-0.672-1.5-1.5-1.5z"
      />
</symbol>
<symbol id="icon-parking" viewBox="0 0 32 32">
<path
        d="M5.889 4.5c-0.767 0-1.389 0.622-1.389 1.389v20.222c0 0.767 0.622 1.389 1.389 1.389h20.222c0.767 0 1.389-0.622 1.389-1.389v-20.222c0-0.767-0.622-1.389-1.389-1.389h-20.222zM1.5 5.889c0-2.424 1.965-4.389 4.389-4.389h20.222c2.424 0 4.389 1.965 4.389 4.389v20.222c0 2.424-1.965 4.389-4.389 4.389h-20.222c-2.424 0-4.389-1.965-4.389-4.389v-20.222zM10.167 8.778c0-0.828 0.672-1.5 1.5-1.5h5.778c1.547 0 3.031 0.615 4.125 1.709s1.709 2.578 1.709 4.125-0.615 3.031-1.709 4.125c-1.094 1.094-2.578 1.709-4.125 1.709h-4.278v4.278c0 0.828-0.672 1.5-1.5 1.5s-1.5-0.672-1.5-1.5v-14.444zM13.167 15.944h4.278c0.751 0 1.472-0.299 2.003-0.83s0.83-1.252 0.83-2.003c0-0.752-0.299-1.472-0.83-2.003s-1.252-0.83-2.003-0.83h-4.278v5.667z"
      />
</symbol>
<symbol id="icon-no_parking" viewBox="0 0 32 32">
<path
        d="M0.939 0.939c0.586-0.586 1.536-0.586 2.121 0l1.4 1.4c0.556-0.262 1.166-0.406 1.793-0.415l0.021-0h19.95c1.154 0 2.26 0.458 3.076 1.274s1.274 1.922 1.274 3.076v19.956c-0.003 0.634-0.144 1.253-0.406 1.817l1.392 1.392c0.586 0.586 0.586 1.536 0 2.121s-1.536 0.586-2.121 0l-28.5-28.5c-0.586-0.586-0.586-1.536 0-2.121zM27.575 25.454v-19.179c0-0.358-0.142-0.701-0.395-0.955s-0.596-0.395-0.955-0.395h-19.179l3.568 3.568c0.239-0.513 0.758-0.868 1.361-0.868h5.7c1.532 0 3.001 0.608 4.084 1.691s1.691 2.552 1.691 4.084-0.608 3-1.691 4.084c-0.367 0.367-0.778 0.68-1.221 0.932l7.038 7.038zM18.238 16.117c0.526-0.109 1.013-0.37 1.399-0.755 0.52-0.52 0.813-1.226 0.813-1.962s-0.292-1.442-0.813-1.962c-0.52-0.52-1.226-0.813-1.962-0.813h-4.2v0.729l4.764 4.763zM3.425 10.047c-0.828 0-1.5 0.672-1.5 1.5v14.678c0 1.154 0.458 2.26 1.274 3.076s1.922 1.274 3.076 1.274h14.678c0.828 0 1.5-0.671 1.5-1.5s-0.672-1.5-1.5-1.5h-14.678c-0.358 0-0.701-0.142-0.955-0.395s-0.395-0.596-0.395-0.955v-14.678c0-0.828-0.672-1.5-1.5-1.5zM11.975 18.597c-0.828 0-1.5 0.672-1.5 1.5v3.277c0 0.829 0.672 1.5 1.5 1.5s1.5-0.671 1.5-1.5v-3.277c0-0.828-0.671-1.5-1.5-1.5z"
      />
</symbol>
<symbol id="icon-locate" viewBox="0 0 32 32">
<path
        d="M0 15.75c0-0.828 0.672-1.5 1.5-1.5h4.275c0.828 0 1.5 0.672 1.5 1.5s-0.672 1.5-1.5 1.5h-4.275c-0.828 0-1.5-0.672-1.5-1.5z"
      />
<path
        d="M24.225 15.75c0-0.828 0.672-1.5 1.5-1.5h4.275c0.828 0 1.5 0.672 1.5 1.5s-0.672 1.5-1.5 1.5h-4.275c-0.828 0-1.5-0.672-1.5-1.5z"
      />
<path
        d="M15.75 0c0.828 0 1.5 0.672 1.5 1.5v4.275c0 0.828-0.672 1.5-1.5 1.5s-1.5-0.672-1.5-1.5v-4.275c0-0.828 0.672-1.5 1.5-1.5z"
      />
<path
        d="M15.75 24.225c0.828 0 1.5 0.672 1.5 1.5v4.275c0 0.828-0.672 1.5-1.5 1.5s-1.5-0.672-1.5-1.5v-4.275c0-0.828 0.672-1.5 1.5-1.5z"
      />
<path
        d="M15.75 7.275c-4.681 0-8.475 3.794-8.475 8.475s3.794 8.475 8.475 8.475c4.681 0 8.475-3.794 8.475-8.475s-3.794-8.475-8.475-8.475zM4.275 15.75c0-6.337 5.138-11.475 11.475-11.475s11.475 5.138 11.475 11.475-5.137 11.475-11.475 11.475c-6.337 0-11.475-5.137-11.475-11.475z"
      />
<path
        d="M15.75 12.975c-1.533 0-2.775 1.242-2.775 2.775s1.242 2.775 2.775 2.775c1.533 0 2.775-1.242 2.775-2.775s-1.242-2.775-2.775-2.775zM9.975 15.75c0-3.189 2.586-5.775 5.775-5.775s5.775 2.586 5.775 5.775-2.585 5.775-5.775 5.775c-3.189 0-5.775-2.586-5.775-5.775z"
      />
</symbol>
<symbol id="icon-plane_landing" viewBox="0 0 32 32">
<path
        d="M7.772 7.604l3.586 7.172c0.179 0.358 0.207 0.773 0.079 1.153s-0.404 0.692-0.764 0.867l-1.596 0.777c-0.603 0.302-1.268 0.459-1.942 0.459-0.678 0-1.347-0.159-1.953-0.464-0.029-0.015-0.058-0.030-0.086-0.047l-0.192-0.113c-0.177-0.083-0.371-0.126-0.567-0.126-0.209 0-0.416 0.049-0.603 0.143l-0.224 0.112 1.828 3.655 2.31 0.392c0.096-0.003 0.192 0.004 0.288 0.020 0.278 0.047 0.564 0.004 0.817-0.121l18.216-9.037c0.374-0.193 0.668-0.495 0.853-0.864l0.547-1.095c0.033-0.064 0.052-0.135 0.054-0.208s-0.012-0.144-0.041-0.211-0.072-0.125-0.127-0.173c-0.055-0.047-0.119-0.082-0.189-0.101l-1.383-0.399c-0.459-0.126-0.948-0.077-1.373 0.137l-5.956 2.928c-0.001 0-0.002 0.001-0.003 0.001-0.724 0.358-1.533 0.508-2.337 0.431-0.802-0.076-1.568-0.375-2.21-0.862l-5.71-4.261c-0.198-0.15-0.434-0.242-0.681-0.265-0.22-0.021-0.441 0.013-0.644 0.098zM7.799 24.608c-0.119 0.009-0.24 0.003-0.361-0.017l-3.35-0.568c-0.472-0.080-0.877-0.38-1.091-0.808l-2.839-5.678c-0.37-0.741-0.070-1.642 0.671-2.012l1.557-0.779c0.001-0 0.002-0.001 0.002-0.001 0.605-0.304 1.273-0.463 1.95-0.463s1.347 0.159 1.953 0.464c0.029 0.015 0.058 0.030 0.086 0.047l0.192 0.113c0.177 0.083 0.371 0.126 0.567 0.126 0.209 0 0.416-0.049 0.603-0.143l0.019-0.009 0.241-0.117-3.58-7.161c-0.178-0.356-0.207-0.768-0.081-1.145s0.396-0.689 0.752-0.867l1.286-0.643c0.722-0.355 1.528-0.502 2.329-0.426 0.799 0.076 1.561 0.373 2.201 0.856l5.714 4.264c0.199 0.151 0.435 0.244 0.684 0.267s0.498-0.023 0.722-0.133l0.005-0.002 5.942-2.921c1.092-0.548 2.348-0.67 3.525-0.343l0.015 0.004 1.37 0.396c0.496 0.139 0.955 0.386 1.344 0.724 0.391 0.34 0.702 0.762 0.91 1.237s0.307 0.99 0.29 1.508c-0.016 0.514-0.146 1.019-0.381 1.477l-0.536 1.072c-0.467 0.934-1.221 1.709-2.178 2.198l-0.015 0.008-18.226 9.042c-0.711 0.352-1.503 0.502-2.288 0.436zM0 29.642c0 0.828 0.672 1.5 1.5 1.5h28.389c0.828 0 1.5-0.672 1.5-1.5s-0.672-1.5-1.5-1.5h-28.389c-0.828 0-1.5 0.672-1.5 1.5z"
      />
</symbol>
<symbol id="icon-plane_taking_off" viewBox="0 0 32 32">
<path
        d="M14.048 0.451c0.379-0.125 0.791-0.095 1.148 0.085l1.457 0.736c0.623 0.311 1.161 0.77 1.567 1.336 0.407 0.567 0.669 1.225 0.763 1.917l0.001 0.004 1.001 7.507c0 0.001 0 0.001 0 0.002 0.029 0.207 0.107 0.403 0.228 0.572s0.283 0.307 0.47 0.4l0.002 0.001 6.146 3.073c0.808 0.423 1.533 1.073 2.011 1.919l0.843 1.449c1.19 2.137-0.135 4.84-2.6 5.14l-1.636 0.208c-0.939 0.12-1.913-0.037-2.777-0.485l-18.164-9.068c-0.411-0.208-0.785-0.482-1.109-0.809l-2.459-2.459c-0.439-0.439-0.562-1.103-0.31-1.67l2.782-6.26c0.166-0.374 0.479-0.664 0.864-0.803s0.811-0.113 1.177 0.070l1.54 0.77c1.254 0.639 2.071 1.926 2.071 3.354 0 0.268 0.155 0.537 0.429 0.678l0.182 0.091 3.502-7.005c0.178-0.357 0.491-0.628 0.87-0.753zM15.188 3.893l-3.5 6.999c-0.37 0.741-1.271 1.041-2.012 0.671l-1.54-0.77c-1.254-0.639-2.071-1.926-2.071-3.354 0-0.268-0.155-0.537-0.429-0.678l-0.12-0.060-1.726 3.884 1.742 1.742c0.096 0.098 0.208 0.179 0.33 0.242l18.188 9.080c0.3 0.157 0.657 0.221 1.020 0.175l1.653-0.21c0.31-0.037 0.511-0.386 0.347-0.693l-0.837-1.437c-0.16-0.286-0.43-0.548-0.782-0.735l-6.104-3.052c-0-0-0.001-0-0.001-0.001-0.624-0.311-1.163-0.77-1.57-1.337s-0.669-1.225-0.763-1.917l-0.001-0.004-1.001-7.507c-0-0.001-0-0.001-0-0.002-0.028-0.206-0.107-0.403-0.228-0.572s-0.283-0.307-0.47-0.4l-0.123-0.062zM0.5 29c0 0.828 0.672 1.5 1.5 1.5h27.821c0.828 0 1.5-0.672 1.5-1.5s-0.672-1.5-1.5-1.5h-27.821c-0.828 0-1.5 0.672-1.5 1.5z"
      />
</symbol>
<symbol id="icon-globe" viewBox="0 0 32 32">
<path
        d="M21.812 18.688h4.5c0.25-1.167 0.375-2.063 0.375-2.688s-0.125-1.521-0.375-2.688h-4.5c0.125 0.875 0.188 1.771 0.188 2.688s-0.063 1.813-0.188 2.688zM19.437 26.063c1.042-0.333 2.126-0.969 3.251-1.907s1.98-1.886 2.563-2.844h-3.937c-0.417 1.667-1.042 3.25-1.875 4.751h-0.002zM19.125 18.688c0.125-0.875 0.188-1.771 0.188-2.688s-0.063-1.813-0.188-2.688h-6.251c-0.125 0.875-0.188 1.771-0.188 2.688s0.063 1.813 0.188 2.688h6.251zM16 26.625c1.167-1.709 2.022-3.479 2.563-5.312h-5.125c0.541 1.834 1.395 3.605 2.562 5.312zM10.688 10.688c0.501-1.792 1.126-3.376 1.875-4.751-1.042 0.333-2.136 0.969-3.281 1.907s-1.989 1.886-2.531 2.844h3.937zM6.751 21.312c0.541 0.958 1.385 1.906 2.531 2.844s2.24 1.574 3.281 1.907c-0.834-1.501-1.459-3.084-1.875-4.751h-3.937zM5.688 18.688h4.5c-0.125-0.875-0.188-1.771-0.188-2.688s0.063-1.813 0.188-2.688h-4.5c-0.25 1.167-0.375 2.063-0.375 2.688s0.125 1.521 0.375 2.688zM16 5.375c-1.167 1.709-2.022 3.479-2.563 5.312h5.125c-0.541-1.834-1.396-3.605-2.563-5.312h0.001zM25.251 10.688c-0.583-0.958-1.438-1.906-2.563-2.844s-2.209-1.574-3.251-1.907c0.75 1.375 1.375 2.959 1.875 4.751h3.939zM16 2.688c3.667 0 6.802 1.302 9.407 3.907s3.907 5.74 3.907 9.407-1.302 6.802-3.907 9.407c-2.605 2.605-5.74 3.907-9.407 3.907s-6.802-1.302-9.407-3.907-3.907-5.74-3.907-9.407c0-3.667 1.302-6.802 3.907-9.407s5.74-3.907 9.407-3.907z"
      />
</symbol>
<symbol id="icon-search" viewBox="0 0 32 32">
<path
        d="M14.444 4.5c5.492 0 9.944 4.452 9.944 9.944 0 2.677-1.058 5.108-2.779 6.895-0.050 0.039-0.098 0.081-0.144 0.127s-0.088 0.094-0.127 0.144c-1.788 1.721-4.218 2.779-6.895 2.779-5.492 0-9.944-4.452-9.944-9.944s4.452-9.944 9.944-9.944zM24.597 22.476c1.748-2.207 2.792-4.997 2.792-8.031 0-7.149-5.796-12.944-12.944-12.944s-12.944 5.795-12.944 12.944c0 7.149 5.795 12.944 12.944 12.944 3.034 0 5.824-1.044 8.031-2.792l5.214 5.214c0.586 0.586 1.535 0.586 2.121 0s0.586-1.535 0-2.121l-5.214-5.214z"
      />
</symbol>
<symbol id="icon-settings" viewBox="0 0 32 32">
<path
        d="M16 10.5c-3.038 0-5.5 2.462-5.5 5.5s2.462 5.5 5.5 5.5c3.038 0 5.5-2.462 5.5-5.5s-2.462-5.5-5.5-5.5zM13.5 16c0-1.381 1.119-2.5 2.5-2.5s2.5 1.119 2.5 2.5c0 1.381-1.119 2.5-2.5 2.5s-2.5-1.119-2.5-2.5z"
      />
<path
        d="M13.52 2.5c-0.441 0-0.943 0.129-1.366 0.501-0.404 0.355-0.59 0.805-0.674 1.174l-0.013 0.057-0.302 2.062c-0.023 0.158-0.155 0.399-0.48 0.587-0.054 0.031-0.108 0.063-0.162 0.096-0.226 0.136-0.436 0.136-0.57 0.084l-2.102-0.813-0.040-0.013c-0.353-0.114-0.83-0.191-1.342-0.036-0.544 0.164-0.926 0.528-1.16 0.925l-2.494 4.193c-0.187 0.33-0.38 0.824-0.295 1.408 0.090 0.616 0.447 1.055 0.825 1.328l1.636 1.244c0.145 0.11 0.29 0.359 0.29 0.703s-0.146 0.593-0.29 0.703l-1.636 1.244c-0.377 0.273-0.735 0.712-0.825 1.328-0.085 0.584 0.108 1.078 0.295 1.408l0.008 0.014 2.485 4.177c0.233 0.398 0.615 0.764 1.161 0.928 0.514 0.155 0.993 0.077 1.346-0.038l0.038-0.012 2.062-0.798c0.134-0.052 0.372-0.057 0.655 0.108 0.050 0.029 0.101 0.058 0.152 0.087 0.3 0.169 0.419 0.388 0.44 0.534l0.305 2.085 0.013 0.057c0.084 0.369 0.27 0.819 0.674 1.174 0.423 0.372 0.924 0.501 1.366 0.501h4.96c0.442 0 0.943-0.129 1.366-0.501 0.404-0.355 0.59-0.805 0.674-1.174l0.013-0.057 0.302-2.062c0.023-0.158 0.155-0.399 0.48-0.587 0.054-0.031 0.108-0.063 0.162-0.096 0.226-0.136 0.436-0.136 0.57-0.084l2.102 0.814 0.040 0.013c0.353 0.114 0.831 0.191 1.342 0.036 0.544-0.164 0.926-0.528 1.16-0.925l0.002-0.004 2.492-4.189c0.187-0.33 0.38-0.824 0.295-1.408-0.090-0.616-0.447-1.055-0.825-1.328l-1.636-1.244c-0.145-0.11-0.29-0.359-0.29-0.703s0.145-0.593 0.29-0.703l1.636-1.243c0.378-0.273 0.735-0.712 0.825-1.329 0.085-0.584-0.108-1.079-0.295-1.408l-0.008-0.014-2.485-4.177c-0.233-0.398-0.615-0.764-1.161-0.928-0.514-0.155-0.993-0.077-1.346 0.038l-0.038 0.013-2.062 0.798c-0.134 0.052-0.372 0.057-0.655-0.108-0.050-0.029-0.101-0.058-0.152-0.087-0.3-0.169-0.419-0.388-0.441-0.534l-0.305-2.086-0.013-0.057c-0.084-0.369-0.27-0.819-0.674-1.174-0.423-0.372-0.924-0.501-1.366-0.501h-4.96zM14.135 6.728l0.18-1.228h3.371l0.183 1.252c0.183 1.252 1.007 2.191 1.938 2.714 0.037 0.021 0.074 0.042 0.11 0.063 0.906 0.529 2.101 0.76 3.25 0.315l1.342-0.519 1.684 2.831-0.99 0.752c-1.016 0.772-1.475 1.978-1.475 3.092s0.459 2.32 1.475 3.092l0.99 0.753-1.684 2.831-1.38-0.534c-1.107-0.428-2.284-0.239-3.199 0.311-0.043 0.026-0.084 0.050-0.126 0.074-0.919 0.535-1.755 1.481-1.939 2.746l-0.18 1.228h-3.371l-0.183-1.252c-0.183-1.252-1.007-2.191-1.938-2.714-0.037-0.021-0.074-0.042-0.11-0.063-0.906-0.529-2.101-0.76-3.25-0.315l-1.342 0.519-1.684-2.831 0.99-0.753c1.016-0.772 1.475-1.978 1.475-3.092s-0.459-2.32-1.475-3.092l-0.99-0.752 1.684-2.831 1.38 0.534c1.107 0.428 2.284 0.239 3.199-0.311 0.043-0.026 0.084-0.050 0.126-0.074 0.919-0.535 1.754-1.481 1.939-2.746z"
      />
</symbol>
<symbol id="icon-work" viewBox="0 0 32 32">
<path
        d="M7 8.5h18c2.761 0 5 2.239 5 5v10c0 2.761-2.239 5-5 5h-18c-2.761 0-5-2.239-5-5v-10c0-2.761 2.239-5 5-5zM7 11.5c-1.105 0-2 0.895-2 2v10c0 1.105 0.895 2 2 2h18c1.105 0 2-0.895 2-2v-10c0-1.105-0.895-2-2-2h-18z"
      />
<path
        d="M9.5 6.5c0-1.933 1.567-3.5 3.5-3.5h6c1.933 0 3.5 1.567 3.5 3.5v4h-3v-4c0-0.276-0.224-0.5-0.5-0.5h-6c-0.276 0-0.5 0.224-0.5 0.5v4h-3v-4z"
      />
</symbol>
<symbol id="icon-date_range" viewBox="0 0 32 32">
<path
        d="M6.361 6.361c-0.752 0-1.361 0.609-1.361 1.361v20.028c0 0.752 0.609 1.361 1.361 1.361h20.028c0.752 0 1.361-0.609 1.361-1.361v-20.028c0-0.752-0.609-1.361-1.361-1.361h-20.028zM2 7.722c0-2.409 1.953-4.361 4.361-4.361h20.028c2.409 0 4.361 1.953 4.361 4.361v20.028c0 2.409-1.953 4.361-4.361 4.361h-20.028c-2.409 0-4.361-1.953-4.361-4.361v-20.028z"
      />
<path
        d="M22.097 0.5c0.828 0 1.5 0.672 1.5 1.5v5.722c0 0.828-0.672 1.5-1.5 1.5s-1.5-0.672-1.5-1.5v-5.722c0-0.828 0.672-1.5 1.5-1.5z"
      />
<path
        d="M10.652 0.5c0.829 0 1.5 0.672 1.5 1.5v5.722c0 0.828-0.671 1.5-1.5 1.5s-1.5-0.672-1.5-1.5v-5.722c0-0.828 0.672-1.5 1.5-1.5z"
      />
<path
        d="M2 13.444c0-0.828 0.672-1.5 1.5-1.5h25.75c0.829 0 1.5 0.672 1.5 1.5s-0.671 1.5-1.5 1.5h-25.75c-0.828 0-1.5-0.672-1.5-1.5z"
      />
<path
        d="M9.153 19.167c0-0.828 0.672-1.5 1.5-1.5h0.012c0.828 0 1.5 0.672 1.5 1.5s-0.672 1.5-1.5 1.5h-0.012c-0.828 0-1.5-0.671-1.5-1.5z"
      />
<path
        d="M14.875 19.167c0-0.828 0.671-1.5 1.5-1.5h0.012c0.828 0 1.5 0.672 1.5 1.5s-0.672 1.5-1.5 1.5h-0.012c-0.829 0-1.5-0.671-1.5-1.5z"
      />
<path
        d="M20.597 19.167c0-0.828 0.672-1.5 1.5-1.5h0.012c0.828 0 1.5 0.672 1.5 1.5s-0.672 1.5-1.5 1.5h-0.012c-0.828 0-1.5-0.671-1.5-1.5z"
      />
</symbol>
<symbol id="icon-calendar" viewBox="0 0 32 32">
<path
        d="M5.861 6.361c-0.752 0-1.361 0.609-1.361 1.361v20.028c0 0.752 0.609 1.361 1.361 1.361h20.028c0.752 0 1.361-0.609 1.361-1.361v-20.028c0-0.752-0.609-1.361-1.361-1.361h-20.028zM1.5 7.722c0-2.409 1.953-4.361 4.361-4.361h20.028c2.409 0 4.361 1.953 4.361 4.361v20.028c0 2.409-1.953 4.361-4.361 4.361h-20.028c-2.409 0-4.361-1.953-4.361-4.361v-20.028z"
      />
<path
        d="M21.597 0.5c0.828 0 1.5 0.672 1.5 1.5v5.722c0 0.828-0.672 1.5-1.5 1.5s-1.5-0.672-1.5-1.5v-5.722c0-0.828 0.672-1.5 1.5-1.5z"
      />
<path
        d="M10.152 0.5c0.829 0 1.5 0.672 1.5 1.5v5.722c0 0.828-0.671 1.5-1.5 1.5s-1.5-0.672-1.5-1.5v-5.722c0-0.828 0.672-1.5 1.5-1.5z"
      />
<path
        d="M1.5 13.444c0-0.828 0.672-1.5 1.5-1.5h25.75c0.829 0 1.5 0.672 1.5 1.5s-0.671 1.5-1.5 1.5h-25.75c-0.828 0-1.5-0.672-1.5-1.5z"
      />
</symbol>
<symbol id="icon-people" viewBox="0 0 32 32">
<path
        d="M13.775 5.5c-2.099 0-3.8 1.701-3.8 3.8s1.701 3.8 3.8 3.8c2.099 0 3.8-1.701 3.8-3.8s-1.701-3.8-3.8-3.8zM6.975 9.3c0-3.756 3.044-6.8 6.8-6.8s6.8 3.044 6.8 6.8-3.044 6.8-6.8 6.8c-3.756 0-6.8-3.044-6.8-6.8zM4.992 20.392c-1.275 1.275-1.992 3.005-1.992 4.808v2.65c0 0.828 0.672 1.5 1.5 1.5s1.5-0.672 1.5-1.5v-2.65c0-1.008 0.4-1.974 1.113-2.687s1.679-1.113 2.687-1.113h7.95c1.008 0 1.974 0.4 2.687 1.113s1.113 1.679 1.113 2.687v2.65c0 0.828 0.672 1.5 1.5 1.5s1.5-0.672 1.5-1.5v-2.65c0-1.803-0.716-3.533-1.992-4.808s-3.005-1.992-4.808-1.992h-7.95c-1.803 0-3.533 0.716-4.808 1.992z"
      />
<path
        d="M18.651 13.084c0.115 0.011 0.232 0.016 0.349 0.016 2.099 0 3.8-1.701 3.8-3.8s-1.701-3.8-3.8-3.8c-0.118 0-0.234 0.005-0.349 0.016-0.662-0.987-1.577-1.791-2.651-2.32 0.905-0.446 1.923-0.696 3-0.696 3.756 0 6.8 3.044 6.8 6.8s-3.044 6.8-6.8 6.8c-1.077 0-2.095-0.25-3-0.696 1.074-0.529 1.988-1.333 2.651-2.32z"
      />
<path
        d="M22.614 21.4h0.361c1.008 0 1.974 0.4 2.687 1.113s1.113 1.679 1.113 2.687v2.65c0 0.828 0.672 1.5 1.5 1.5s1.5-0.672 1.5-1.5v-2.65c0-1.803-0.716-3.533-1.992-4.808s-3.005-1.992-4.808-1.992h-6c1.803 0 3.533 0.716 4.808 1.992 0.311 0.311 0.589 0.649 0.831 1.008z"
      />
</symbol>
<symbol id="icon-filter_list_alt" viewBox="0 0 32 32">
<path
        d="M2.5 8c0 0.828 0.672 1.5 1.5 1.5h24.75c0.828 0 1.5-0.672 1.5-1.5s-0.672-1.5-1.5-1.5h-24.75c-0.828 0-1.5 0.672-1.5 1.5zM8 16.25c0 0.828 0.672 1.5 1.5 1.5h13.75c0.828 0 1.5-0.672 1.5-1.5s-0.672-1.5-1.5-1.5h-13.75c-0.828 0-1.5 0.672-1.5 1.5zM12.125 24.5c0 0.828 0.672 1.5 1.5 1.5h5.5c0.828 0 1.5-0.672 1.5-1.5s-0.672-1.5-1.5-1.5h-5.5c-0.828 0-1.5 0.672-1.5 1.5z"
      />
</symbol>
<symbol id="icon-chat_bubble" viewBox="0 0 32 32">
<path
        d="M5.923 30.052c1.184 0.731 2.715 0.553 3.699-0.431l6.621-6.621h10.757c2.209 0 4-1.791 4-4v-14c0-2.209-1.791-4-4-4h-22c-2.209 0-4 1.791-4 4v14c0 2.209 1.791 4 4 4h0.838l-1.184 3.551c-0.44 1.32 0.085 2.769 1.269 3.501zM7.5 27.5l2.061-6.184c0.018-0.053 0.031-0.106 0.039-0.159 0.096-0.593-0.361-1.157-0.988-1.157h-3.613c-0.552 0-1-0.448-1-1v-14c0-0.552 0.448-1 1-1h22c0.552 0 1 0.448 1 1v14c0 0.552-0.448 1-1 1h-11.586c-0.265 0-0.52 0.105-0.707 0.293l-7.207 7.207z"
      />
</symbol>
<symbol id="icon-location_pin" viewBox="0 0 32 32">
<path
        d="M15.5 4.5c-2.387 0-4.676 0.948-6.364 2.636s-2.636 3.977-2.636 6.364c0 3.345 2.281 6.917 4.871 9.832 1.26 1.418 2.525 2.604 3.476 3.436 0.24 0.21 0.459 0.397 0.653 0.559 0.194-0.162 0.413-0.349 0.653-0.559 0.951-0.832 2.216-2.018 3.476-3.436 2.59-2.914 4.871-6.487 4.871-9.832 0-2.387-0.948-4.676-2.636-6.364s-3.977-2.636-6.364-2.636zM15.5 29.25c-0.9 1.2-0.9 1.2-0.901 1.2l-0.004-0.003-0.008-0.006-0.027-0.021c-0.017-0.012-0.038-0.029-0.064-0.049-0.010-0.008-0.022-0.017-0.034-0.026-0.084-0.065-0.203-0.159-0.354-0.28-0.301-0.242-0.728-0.594-1.238-1.040-1.017-0.89-2.378-2.165-3.743-3.701-2.66-2.992-5.629-7.295-5.629-11.825 0-3.183 1.264-6.235 3.515-8.485s5.303-3.515 8.485-3.515c3.183 0 6.235 1.264 8.485 3.515s3.515 5.303 3.515 8.485c0 4.53-2.969 8.833-5.629 11.825-1.365 1.536-2.725 2.81-3.743 3.701-0.51 0.446-0.936 0.798-1.238 1.040-0.151 0.121-0.27 0.215-0.354 0.28-0.042 0.032-0.075 0.057-0.098 0.075l-0.035 0.027-0.003 0.003c-0 0-0.001 0-0.901-1.2zM15.5 29.25l0.901 1.2c-0.533 0.4-1.268 0.4-1.801 0l0.901-1.2zM15.5 11.062c-1.346 0-2.438 1.091-2.438 2.438s1.091 2.438 2.438 2.438c1.346 0 2.438-1.091 2.438-2.438s-1.091-2.438-2.438-2.438zM10.063 13.5c0-3.003 2.434-5.438 5.438-5.438s5.438 2.434 5.438 5.438c0 3.003-2.434 5.438-5.438 5.438s-5.438-2.434-5.438-5.438z"
      />
</symbol>
<symbol id="icon-cart" viewBox="0 0 32 32">
<path
        d="M1.5 3c0-0.828 0.672-1.5 1.5-1.5h2.641c0.707 0 1.319 0.494 1.467 1.186l1.16 5.417h21.195c0.455 0 0.885 0.206 1.17 0.561s0.393 0.82 0.294 1.264l-2.178 9.809c0 0-0 0.001-0 0.001-0.203 0.92-0.713 1.743-1.447 2.334s-1.648 0.914-2.59 0.916h-12.902c-0.957 0.017-1.89-0.298-2.64-0.891-0.756-0.597-1.28-1.439-1.482-2.381l-2.085-9.734c-0.011-0.042-0.020-0.084-0.027-0.127l-1.147-5.354h-1.428c-0.828 0-1.5-0.672-1.5-1.5zM8.91 11.102l1.71 7.983c0.056 0.259 0.2 0.492 0.408 0.656s0.467 0.251 0.733 0.245c0.011-0 0.022-0 0.033-0h12.912c0 0-0 0 0 0 0.259-0.001 0.512-0.090 0.714-0.252s0.343-0.39 0.399-0.643l1.774-7.989h-18.683zM10.857 28.203c-0.099 0-0.179-0.080-0.179-0.18s0.080-0.18 0.18-0.18c0.099 0 0.18 0.080 0.18 0.18s-0.080 0.18-0.18 0.18zM8.036 28.023c0 1.558 1.263 2.82 2.82 2.82s2.821-1.263 2.821-2.82c0-1.558-1.263-2.82-2.82-2.82s-2.82 1.263-2.82 2.82zM25.382 28.203c-0.099 0-0.18-0.080-0.18-0.18s0.080-0.18 0.18-0.18c0.099 0 0.18 0.080 0.18 0.18s-0.080 0.18-0.18 0.18zM22.562 28.023c0 1.558 1.263 2.82 2.82 2.82s2.82-1.263 2.82-2.82c0-1.558-1.263-2.82-2.82-2.82s-2.82 1.263-2.82 2.82z"
      />
</symbol>
<symbol id="icon-ticket" viewBox="0 0 32 32">
<path
        d="M3.277 5.277c-0.818 0.818-1.277 1.927-1.277 3.084v2.861c0 0.829 0.672 1.5 1.5 1.5 0.74 0 1.45 0.294 1.974 0.818s0.818 1.234 0.818 1.974c0 0.74-0.294 1.45-0.818 1.974s-1.234 0.818-1.974 0.818c-0.828 0-1.5 0.672-1.5 1.5v2.861c0 2.402 1.959 4.361 4.361 4.361h11.442c0.001 0 0.002 0 0.002 0s0.002 0 0.002 0h8.581c1.157 0 2.266-0.459 3.084-1.277s1.277-1.927 1.277-3.084v-2.861c0-0.828-0.672-1.5-1.5-1.5-0.74 0-1.45-0.294-1.974-0.818s-0.818-1.234-0.818-1.974 0.294-1.45 0.818-1.974c0.524-0.524 1.234-0.818 1.974-0.818 0.828 0 1.5-0.671 1.5-1.5v-2.861c0-1.157-0.459-2.266-1.277-3.084s-1.927-1.277-3.084-1.277h-20.028c-1.157 0-2.266 0.459-3.084 1.277zM19.306 24.028v-1.361c0-0.828-0.672-1.5-1.5-1.5s-1.5 0.672-1.5 1.5v1.361h-9.944c-0.745 0-1.361-0.616-1.361-1.361v-1.559c0.973-0.261 1.87-0.774 2.595-1.499 1.086-1.086 1.696-2.559 1.696-4.095s-0.61-3.009-1.696-4.095c-0.725-0.725-1.622-1.238-2.595-1.499v-1.559c0-0.361 0.143-0.707 0.399-0.962s0.601-0.399 0.962-0.399h9.944v1.361c0 0.828 0.672 1.5 1.5 1.5s1.5-0.672 1.5-1.5v-1.361h7.083c0.361 0 0.707 0.143 0.962 0.399s0.399 0.601 0.399 0.962v1.559c-0.973 0.261-1.87 0.774-2.595 1.499-1.086 1.086-1.696 2.559-1.696 4.095s0.61 3.009 1.696 4.095c0.725 0.725 1.622 1.238 2.595 1.499v1.559c0 0.361-0.143 0.707-0.399 0.962s-0.602 0.399-0.962 0.399h-7.083zM17.806 12.583c-0.828 0-1.5 0.671-1.5 1.5v2.861c0 0.828 0.672 1.5 1.5 1.5s1.5-0.672 1.5-1.5v-2.861c0-0.829-0.672-1.5-1.5-1.5z"
      />
</symbol>
<symbol id="icon-plane" viewBox="0 0 32 32">
<path
        d="M25.247 2.821c1.287-0.396 2.751-0.492 3.919 0.092 0.29 0.145 0.526 0.381 0.671 0.671 0.584 1.168 0.488 2.632 0.092 3.919-0.413 1.342-1.222 2.745-2.414 3.937l-4.182 4.182 2.279 10.384c0.27 1.353-0.338 2.442-1.251 3.127-0.105 0.079-0.221 0.144-0.343 0.193l-0.68 0.272c-1.178 0.471-2.631 0.292-3.526-0.901-0.018-0.024-0.035-0.048-0.052-0.073l-3.933-5.955-2.161 1.441v3.28c0 0.398-0.158 0.779-0.439 1.061l-1.361 1.361c-0.318 0.318-0.761 0.476-1.209 0.432s-0.851-0.287-1.1-0.661l-2.555-3.833-3.833-2.555c-0.374-0.249-0.616-0.653-0.661-1.1s0.114-0.891 0.432-1.209l1.361-1.361c0.281-0.281 0.663-0.439 1.061-0.439h3.28l1.441-2.161-5.955-3.933c-0.025-0.017-0.049-0.034-0.073-0.052-1.193-0.895-1.372-2.349-0.901-3.526 0.030-0.074 0.065-0.146 0.106-0.215l0.384-0.639c0.606-1.149 1.826-1.676 3.102-1.421l0.027 0.006 10.357 2.273 4.182-4.182c1.192-1.192 2.595-2.001 3.936-2.414zM26.129 5.689c-0.869 0.268-1.848 0.819-2.698 1.668l-4.763 4.763c-0.362 0.362-0.883 0.514-1.382 0.405l-11.068-2.429-0.294 0.49 7.066 4.666c0.333 0.22 0.565 0.563 0.644 0.954s-0.001 0.797-0.222 1.129l-2.722 4.082c-0.278 0.417-0.747 0.668-1.248 0.668h-2.53l2.002 1.334c0.165 0.11 0.306 0.251 0.416 0.416l1.334 2.002v-2.53c0-0.502 0.251-0.97 0.668-1.248l4.082-2.722c0.332-0.221 0.738-0.301 1.129-0.222s0.735 0.311 0.954 0.644l4.671 7.073c0.015-0.004 0.032-0.010 0.053-0.018l0.446-0.178c0.002-0.003 0.004-0.005 0.006-0.008-0.001-0.006-0.002-0.014-0.003-0.023l-2.445-11.14c-0.11-0.5 0.043-1.021 0.404-1.382l4.763-4.763c0.849-0.849 1.401-1.828 1.668-2.697 0.142-0.462 0.189-0.837 0.189-1.121-0.284-0-0.659 0.047-1.121 0.189z"
      />
</symbol>
<symbol id="icon-bus" viewBox="0 0 32 32">
<path
        d="M1.282 5.282c0.821-0.821 1.934-1.282 3.094-1.282h19.642c1.296-0 2.555 0.433 3.576 1.23s1.748 1.913 2.063 3.169l1.539 6.14c0.405 1.617 0.405 3.31 0 4.928l-0.001 0.002-0.92 3.652c-0.168 0.666-0.767 1.134-1.454 1.134h-2.876c-0.828 0-1.5-0.672-1.5-1.5s0.672-1.5 1.5-1.5h1.707l0.634-2.517c0.285-1.14 0.285-2.332 0-3.47zM28.286 15.269l-1.538-6.14c-0.153-0.608-0.504-1.148-0.999-1.534s-1.104-0.595-1.731-0.595h-19.642c-0.365 0-0.715 0.145-0.973 0.403s-0.403 0.608-0.403 0.973v12.879h1.376c0.828 0 1.5 0.672 1.5 1.5s-0.672 1.5-1.5 1.5h-2.876c-0.828 0-1.5-0.672-1.5-1.5v-14.379c0-1.161 0.461-2.274 1.282-3.094z"
      />
<path
        d="M10.066 22.755c0-0.828 0.671-1.5 1.5-1.5h7.19c0.828 0 1.5 0.672 1.5 1.5s-0.672 1.5-1.5 1.5h-7.19c-0.829 0-1.5-0.672-1.5-1.5z"
      />
<path
        d="M7.971 21.379c-1.157 0-2.095 0.938-2.095 2.095s0.938 2.095 2.095 2.095 2.095-0.938 2.095-2.095c0-1.157-0.938-2.095-2.095-2.095zM2.876 23.474c0-2.814 2.281-5.095 5.095-5.095s5.095 2.281 5.095 5.095-2.281 5.095-5.095 5.095c-2.814 0-5.095-2.281-5.095-5.095z"
      />
<path
        d="M22.35 21.379c-1.157 0-2.095 0.938-2.095 2.095s0.938 2.095 2.095 2.095c1.157 0 2.095-0.938 2.095-2.095s-0.938-2.095-2.095-2.095zM17.255 23.474c0-2.814 2.281-5.095 5.095-5.095s5.095 2.281 5.095 5.095-2.281 5.095-5.095 5.095c-2.814 0-5.095-2.281-5.095-5.095z"
      />
</symbol>
<symbol id="icon-car" viewBox="0 0 32 32">
<path
        d="M6.622 5.5c-0.809-0.005-1.603 0.216-2.293 0.638-0.692 0.423-1.252 1.030-1.616 1.754l-1.144 2.331c0.001-0.002 0.002-0.005 0.003-0.007l-0.007 0.013 0.003-0.006c-0.701 1.396-1.067 2.937-1.069 4.499v5.103c0 0.828 0.672 1.5 1.5 1.5h2.85c0.828 0 1.5-0.672 1.5-1.5s-0.672-1.5-1.5-1.5h-1.35v-3.601c0.001-1.098 0.259-2.18 0.752-3.16l1.142-2.328c-0.001 0.002-0.002 0.004-0.003 0.006l0.007-0.014-0.004 0.008c0.113-0.222 0.286-0.409 0.499-0.539 0.215-0.131 0.462-0.2 0.713-0.198h10.318l-0.023-0.030c0.007 0.009 0.016 0.017 0.026 0.022s0.022 0.008 0.034 0.008h-0.038l3.825 5.1c0.231 0.309 0.573 0.516 0.953 0.58l7.297 1.216 0-0.059c0.001 0.016 0.007 0.032 0.018 0.044s0.024 0.021 0.039 0.024c-0.056-0.009 0.004 0.001 0.007 0.001l-0.007-0.001-0.056-0.009v2.929h-2.775c-0.828 0-1.5 0.672-1.5 1.5s0.672 1.5 1.5 1.5h4.275c0.828 0 1.5-0.672 1.5-1.5v-4.489l-0.001-0.072 0.001 0.077v-0.002c0.002-0.695-0.245-1.368-0.695-1.899s-1.073-0.882-1.758-0.994l-6.758-1.126-3.487-4.649c-0.273-0.363-0.626-0.658-1.032-0.861s-0.854-0.309-1.308-0.309h-10.341zM10.475 19.825c0 0.828 0.672 1.5 1.5 1.5h7.125c0.828 0 1.5-0.672 1.5-1.5s-0.672-1.5-1.5-1.5h-7.125c-0.828 0-1.5 0.672-1.5 1.5z"
      />
<path
        d="M8.412 18.475c-1.139 0-2.063 0.923-2.063 2.063s0.923 2.063 2.063 2.063c1.139 0 2.063-0.923 2.063-2.063s-0.923-2.063-2.063-2.063zM3.35 20.538c0-2.796 2.267-5.063 5.063-5.063s5.063 2.267 5.063 5.063c0 2.796-2.267 5.063-5.063 5.063s-5.063-2.267-5.063-5.063z"
      />
<path
        d="M22.663 18.475c-1.139 0-2.063 0.923-2.063 2.063s0.923 2.063 2.063 2.063c1.139 0 2.063-0.923 2.063-2.063s-0.923-2.063-2.063-2.063zM17.6 20.538c0-2.796 2.267-5.063 5.063-5.063s5.063 2.267 5.063 5.063c0 2.796-2.267 5.063-5.063 5.063s-5.063-2.267-5.063-5.063z"
      />
</symbol>
<symbol id="icon-luggage" viewBox="0 0 32 32">
<path
        d="M12.625 3.5h5.75c0.365 0 0.714 0.145 0.972 0.403s0.403 0.608 0.403 0.972v1.375h-8.5v-1.375c0-0.365 0.145-0.714 0.403-0.972s0.608-0.403 0.972-0.403zM22.75 6.25h1.375c1.16 0 2.273 0.461 3.094 1.281s1.281 1.933 1.281 3.094v14.375c0 1.16-0.461 2.273-1.281 3.094-0.505 0.505-1.121 0.874-1.79 1.083-0.554 1.781-2.215 3.074-4.178 3.074-1.889 0-3.499-1.198-4.111-2.875h-3.278c-0.612 1.677-2.222 2.875-4.111 2.875-1.963 0-3.624-1.293-4.178-3.074-0.67-0.209-1.285-0.578-1.79-1.083-0.82-0.82-1.281-1.933-1.281-3.094v-14.375c0-1.16 0.461-2.273 1.281-3.094s1.933-1.281 3.094-1.281h1.375v-1.375c0-1.16 0.461-2.273 1.281-3.094s1.933-1.281 3.094-1.281h5.75c1.16 0 2.273 0.461 3.094 1.281s1.281 1.933 1.281 3.094v1.375zM19.75 9.25h-8.5v14.514c1.21 0.442 2.17 1.401 2.611 2.611h3.278c0.441-1.21 1.401-2.17 2.611-2.611v-14.514zM22.75 23.764c1.049 0.383 1.91 1.156 2.408 2.143 0.22-0.25 0.342-0.572 0.342-0.907v-14.375c0-0.365-0.145-0.714-0.403-0.972s-0.608-0.403-0.972-0.403h-1.375v14.514zM8.25 23.764v-14.514h-1.375c-0.365 0-0.714 0.145-0.972 0.403s-0.403 0.608-0.403 0.972v14.375c0 0.335 0.122 0.657 0.342 0.907 0.498-0.987 1.359-1.76 2.408-2.143zM9.75 26.5c-0.759 0-1.375 0.616-1.375 1.375s0.616 1.375 1.375 1.375c0.76 0 1.375-0.616 1.375-1.375s-0.616-1.375-1.375-1.375zM21.25 26.5c-0.759 0-1.375 0.616-1.375 1.375s0.616 1.375 1.375 1.375c0.759 0 1.375-0.616 1.375-1.375s-0.616-1.375-1.375-1.375z"
      />
</symbol>
<symbol id="icon-add_person" viewBox="0 0 32 32">
<path
        d="M25.125 9c0.828 0 1.5 0.672 1.5 1.5v2.125h2.125c0.828 0 1.5 0.672 1.5 1.5s-0.672 1.5-1.5 1.5h-2.125v2.125c0 0.828-0.672 1.5-1.5 1.5s-1.5-0.672-1.5-1.5v-2.125h-2.125c-0.828 0-1.5-0.672-1.5-1.5s0.672-1.5 1.5-1.5h2.125v-2.125c0-0.828 0.672-1.5 1.5-1.5z"
      />
<path
        d="M11.775 6c-2.099 0-3.8 1.701-3.8 3.8s1.701 3.8 3.8 3.8c2.099 0 3.8-1.701 3.8-3.8s-1.701-3.8-3.8-3.8zM4.975 9.8c0-3.756 3.044-6.8 6.8-6.8s6.8 3.044 6.8 6.8-3.044 6.8-6.8 6.8c-3.756 0-6.8-3.044-6.8-6.8zM2.992 20.892c-1.275 1.275-1.992 3.005-1.992 4.808v2.65c0 0.828 0.672 1.5 1.5 1.5s1.5-0.672 1.5-1.5v-2.65c0-1.008 0.4-1.974 1.113-2.687s1.679-1.113 2.687-1.113h7.95c1.008 0 1.974 0.4 2.687 1.113s1.113 1.679 1.113 2.687v2.65c0 0.828 0.672 1.5 1.5 1.5s1.5-0.672 1.5-1.5v-2.65c0-1.803-0.716-3.533-1.992-4.808s-3.005-1.992-4.808-1.992h-7.95c-1.803 0-3.533 0.716-4.808 1.992z"
      />
</symbol>
<symbol id="icon-camera" viewBox="0 0 32 32">
<path
        d="M11.799 5.652l-2.216-2.022c0.947-1.038 2.288-1.63 3.693-1.63h5.447c1.405 0 2.745 0.591 3.693 1.629l0.71 0.777h2.509c1.525 0 2.85 0.634 3.842 1.683 0.966 1.022 1.524 2.321 1.524 3.78v14.667c0 1.459-0.558 2.759-1.524 3.78-0.992 1.049-2.317 1.683-3.842 1.683h-19.268c-1.525 0-2.85-0.634-3.842-1.683-0.966-1.022-1.524-2.321-1.524-3.78v-14.667c0-1.459 0.558-2.758 1.524-3.78zM2.524 6.089c0.992-1.049 2.317-1.683 3.842-1.683h2.508l0.709-0.777 2.216 2.022-1.006 1.103c-0.379 0.415-0.915 0.652-1.477 0.652h-2.949c-0.639 0-1.193 0.248-1.662 0.744s-0.704 1.069-0.704 1.719v14.667c0 0.65 0.235 1.223 0.704 1.719s1.023 0.744 1.662 0.744h19.268c0.639 0 1.193-0.248 1.662-0.744s0.704-1.069 0.704-1.719v-14.667c0-0.65-0.235-1.223-0.704-1.719s-1.023-0.744-1.662-0.744h-2.95c-0.562 0-1.098-0.237-1.477-0.652l-1.007-1.103c-0.379-0.415-0.915-0.652-1.477-0.652h-5.447c-0.562 0-1.098 0.237-1.477 0.652z"
      />
<path
        d="M16 21c-2.209 0-4-1.791-4-4s1.791-4 4-4c2.209 0 4 1.791 4 4s-1.791 4-4 4zM16 24c3.866 0 7-3.134 7-7s-3.134-7-7-7c-3.866 0-7 3.134-7 7s3.134 7 7 7z"
      />
</symbol>
<symbol id="icon-qr_code" viewBox="0 0 32 32">
<path
        d="M4.875 4.875v3.875h3.875v-3.875h-3.875zM1.875 4.75c0-1.588 1.287-2.875 2.875-2.875h4.125c1.588 0 2.875 1.287 2.875 2.875v4.125c0 1.588-1.287 2.875-2.875 2.875h-4.125c-1.588 0-2.875-1.287-2.875-2.875v-4.125z"
      />
<path
        d="M22.75 4.875v3.875h3.875v-3.875h-3.875zM19.75 4.75c0-1.588 1.287-2.875 2.875-2.875h4.125c1.588 0 2.875 1.287 2.875 2.875v4.125c0 1.588-1.287 2.875-2.875 2.875h-4.125c-1.588 0-2.875-1.287-2.875-2.875v-4.125z"
      />
<path
        d="M4.875 22.75v3.875h3.875v-3.875h-3.875zM1.875 22.625c0-1.588 1.287-2.875 2.875-2.875h4.125c1.588 0 2.875 1.287 2.875 2.875v4.125c0 1.588-1.287 2.875-2.875 2.875h-4.125c-1.588 0-2.875-1.287-2.875-2.875v-4.125z"
      />
<path
        d="M20.995 20.995c0.797-0.797 1.878-1.245 3.005-1.245h4.125c0.828 0 1.5 0.672 1.5 1.5s-0.672 1.5-1.5 1.5h-4.125c-0.332 0-0.649 0.132-0.884 0.366s-0.366 0.552-0.366 0.884v4.125c0 0.828-0.672 1.5-1.5 1.5s-1.5-0.672-1.5-1.5v-4.125c0-1.127 0.448-2.208 1.245-3.005z"
      />
<path
        d="M28.125 26.75c0.759 0 1.375 0.616 1.375 1.375v0.012c0 0.759-0.616 1.375-1.375 1.375s-1.375-0.616-1.375-1.375v-0.012c0-0.759 0.616-1.375 1.375-1.375z"
      />
<path
        d="M15.75 7.375c0.828 0 1.5 0.672 1.5 1.5v4.125c0 1.127-0.448 2.208-1.245 3.005s-1.878 1.245-3.005 1.245h-4.125c-0.828 0-1.5-0.672-1.5-1.5s0.672-1.5 1.5-1.5h4.125c0.332 0 0.649-0.132 0.884-0.366s0.366-0.552 0.366-0.884v-4.125c0-0.828 0.671-1.5 1.5-1.5z"
      />
<path
        d="M2 15.75c0-0.759 0.616-1.375 1.375-1.375h0.012c0.759 0 1.375 0.616 1.375 1.375s-0.616 1.375-1.375 1.375h-0.012c-0.759 0-1.375-0.616-1.375-1.375z"
      />
<path
        d="M14.375 3.375c0-0.759 0.616-1.375 1.375-1.375h0.012c0.759 0 1.375 0.616 1.375 1.375s-0.616 1.375-1.375 1.375h-0.012c-0.759 0-1.375-0.616-1.375-1.375z"
      />
<path
        d="M15.75 19.875c0.759 0 1.375 0.616 1.375 1.375v0.012c0 0.759-0.616 1.375-1.375 1.375s-1.375-0.616-1.375-1.375v-0.012c0-0.759 0.616-1.375 1.375-1.375z"
      />
<path
        d="M19.75 15.75c0-0.829 0.672-1.5 1.5-1.5h1.375c0.828 0 1.5 0.671 1.5 1.5s-0.672 1.5-1.5 1.5h-1.375c-0.828 0-1.5-0.672-1.5-1.5z"
      />
<path
        d="M28.125 14.375c0.759 0 1.375 0.616 1.375 1.375v0.012c0 0.759-0.616 1.375-1.375 1.375s-1.375-0.616-1.375-1.375v-0.012c0-0.759 0.616-1.375 1.375-1.375z"
      />
<path
        d="M15.75 25.25c0.828 0 1.5 0.672 1.5 1.5v1.375c0 0.829-0.672 1.5-1.5 1.5s-1.5-0.671-1.5-1.5v-1.375c0-0.828 0.672-1.5 1.5-1.5z"
      />
</symbol>
</defs>
</svg>
