<svg width="250" height="50" viewBox="0 0 250 50" fill="none" xmlns="http://www.w3.org/2000/svg">
<g clip-path="url(#clip0_31_45)">
<path d="M4.13804 28.0864H0.137024V0.356598H3.38525L12.5356 13.8256L21.6867 0.356598H24.8556V28.0864H20.8942V8.55674L13.645 19.3316H11.3873L4.13804 8.55674V28.0864Z" fill="#1C7EA1"/>
<path d="M32.8147 4.35761C35.2315 1.86218 38.6382 0.237732 42.4015 0.237732C48.7395 0.237732 53.7311 4.19913 55.3159 10.4579H51.3545C49.8885 6.29836 46.4825 4.19913 42.4015 4.19913C39.747 4.19913 37.3308 5.34813 35.5881 7.17001C33.8455 8.9919 32.7361 11.4484 32.7361 14.3004C32.7361 17.0732 33.8448 19.5297 35.5881 21.3515C37.3314 23.1734 39.7476 24.3224 42.4015 24.3224C46.6007 24.3224 50.1659 21.9056 51.5922 17.7064H55.514C53.9292 24.0048 48.8584 28.2832 42.4015 28.2832C38.6382 28.2832 35.2315 26.699 32.8147 24.1633C30.4374 21.6282 28.8533 18.1416 28.8533 14.2991C28.8533 10.3773 30.4374 6.89133 32.8147 4.3556V4.35761Z" fill="#1C7EA1"/>
<path d="M61.2536 4.35761C63.6705 1.86218 67.0772 0.237732 70.8405 0.237732C77.1785 0.237732 82.17 4.19913 83.7548 10.4579H79.7934C78.3275 6.29836 74.9208 4.19913 70.8405 4.19913C68.1859 4.19913 65.7697 5.34813 64.0271 7.17001C62.2844 8.9919 61.1751 11.4484 61.1751 14.3004C61.1751 17.0732 62.2838 19.5297 64.0271 21.3515C65.7704 23.1734 68.1866 24.3224 70.8405 24.3224C75.0396 24.3224 78.6048 21.9056 80.0312 17.7064H83.9529C82.3681 24.0048 77.2973 28.2832 70.8405 28.2832C67.0772 28.2832 63.6705 26.699 61.2536 24.1633C58.8764 21.6282 57.2922 18.1416 57.2922 14.2991C57.2922 10.3773 58.8764 6.89133 61.2536 4.3556V4.35761Z" fill="#1C7EA1"/>
<path d="M102.172 21.0749H90.9215L88.228 28.0864H83.91L95.0407 0H97.972L109.103 28.0864H104.825L102.17 21.0749H102.172ZM92.3875 17.3116H100.706L96.547 6.37826L92.3875 17.3116Z" fill="#1C7EA1"/>
<path d="M110.448 19.7674V0.39621H114.488V19.807C114.488 22.8571 117.776 24.3627 120.708 24.3627C123.6 24.3627 126.888 22.8175 126.888 19.7674V0.39621H130.928V19.807C130.928 25.4325 125.461 28.3637 120.708 28.3637C115.835 28.3637 110.448 25.4325 110.448 19.7674Z" fill="#1C7EA1"/>
<path d="M149.227 7.52661C148.672 5.03117 145.978 3.96141 143.561 4.00103C141.7 4.04065 139.64 4.67459 138.531 6.10026C137.976 6.81343 137.778 7.72404 137.857 8.67493C138.055 11.527 141.185 11.8835 144.156 12.1609C147.959 12.6363 152.673 13.6269 153.742 18.0637C153.861 18.658 153.941 19.3316 153.941 19.8863C153.941 25.2344 148.632 28.3241 143.641 28.3241C139.362 28.3241 134.173 25.7891 133.658 20.8371L133.619 20.0844L137.659 20.0051L137.699 20.5994V20.4409C137.976 23.0156 141.105 24.3627 143.681 24.3627C146.652 24.3627 149.9 22.6987 149.9 19.8466C149.9 19.5693 149.86 19.2523 149.781 18.8957C149.306 16.7958 146.454 16.4393 143.681 16.1619C139.362 15.7261 134.292 14.7759 133.856 8.9919V9.03152C133.698 7.17002 134.173 5.30785 135.362 3.76264C137.223 1.34645 140.551 0.0785828 143.759 0.0785828C148.038 0.0785828 152.475 2.29667 153.188 7.36745L149.227 7.52593V7.52661Z" fill="#1C7EA1"/>
<path d="M160.197 24.0854H173.23V28.0864H156.196V0.356598H160.197V24.0854Z" fill="#1C7EA1"/>
<path d="M193.865 21.0749H182.615L179.921 28.0864H175.603L186.735 0H189.666L200.798 28.0864H196.519L193.865 21.0749ZM184.081 17.3116H192.4L188.241 6.37826L184.082 17.3116H184.081Z" fill="#1C7EA1"/>
<path d="M202.458 28.0864V0.356598H205.549L219.057 19.8869V0.356598H223.018V28.0864H219.849L206.46 8.71523V28.0864H202.458Z" fill="#1C7EA1"/>
<path d="M236.286 0.39621C245.358 0.39621 249.913 7.32849 249.913 14.2608C249.913 21.1931 245.358 28.0864 236.286 28.0864H226.342V0.39621H236.286ZM236.286 24.0854C242.704 24.0854 245.952 19.1731 245.952 14.2608C245.952 9.34848 242.704 4.39723 236.286 4.39723H230.343V24.0854H236.286Z" fill="#1C7EA1"/>
<path d="M7.28484 31.2822L0 49.6629H2.82583L4.58862 45.0743H11.9514L13.6879 49.6629H16.4876L9.20275 31.2822H7.28484ZM5.54824 42.6111L8.26998 35.4558L10.9924 42.6111H5.54824Z" fill="#1C7EA1"/>
<path d="M35.433 42.8428C38.5423 42.2988 40.1271 39.8611 40.1271 37.2959C40.1271 34.4217 38.1595 31.5139 34.2175 31.5139H27.6029V49.6656H30.195V42.9032H32.1559L37.77 49.6656H41.1612L35.433 42.8428ZM30.195 40.4588V34.1598H34.2175C36.4202 34.1598 37.5081 35.7379 37.5081 37.2959C37.5081 38.8807 36.4202 40.4588 34.2175 40.4588H30.195Z" fill="#1C7EA1"/>
<path d="M51.4895 31.5153H44.8527V49.6622H47.4972V43.6217H51.4895C55.4045 43.6217 57.3748 40.6146 57.3748 37.5813C57.3748 34.5479 55.4045 31.5153 51.4895 31.5153ZM51.4895 41.0296H47.4972V34.1598H51.4895C53.6935 34.1598 54.782 35.8709 54.782 37.6074C54.782 39.3185 53.6935 41.0296 51.4895 41.0296Z" fill="#1C7EA1"/>
<path d="M69.9138 31.1782C67.3472 31.1782 64.9881 32.2412 63.3032 33.9523C61.6438 35.6634 60.5814 37.9963 60.5814 40.5891C60.5814 43.1819 61.6445 45.5148 63.3032 47.2259C64.9881 48.9625 67.3472 50 69.9138 50C72.5059 50 74.8395 48.9632 76.5506 47.2259C78.21 45.5148 79.273 43.1819 79.273 40.5891C79.273 37.9963 78.21 35.6634 76.5506 33.9523C74.8395 32.2412 72.5066 31.1782 69.9138 31.1782ZM74.6582 45.3335C73.4138 46.5779 71.7289 47.3293 69.9138 47.3293C68.0986 47.3293 66.4399 46.5779 65.2217 45.3335C64.0036 44.1409 63.2515 42.456 63.2515 40.5891C63.2515 38.7222 64.0036 37.0373 65.2217 35.8453C66.4399 34.601 68.0993 33.8489 69.9138 33.8489C71.7283 33.8489 73.4138 34.601 74.6582 35.8453C75.8502 37.038 76.6023 38.6974 76.6023 40.5891C76.6023 42.4808 75.8502 44.1409 74.6582 45.3335Z" fill="#1C7EA1"/>
<path d="M90.309 42.8428C93.4182 42.2988 94.9963 39.8611 94.9963 37.2959C94.9963 36.0401 94.6203 34.7776 93.8682 33.7501C92.8944 32.4339 91.3029 31.5139 89.0868 31.5139H82.4789V49.6656H85.071V42.8965H87.0252L92.6392 49.6656H96.0372L90.309 42.8428ZM85.071 40.4588V34.1598H89.0868C91.2895 34.1598 92.3773 35.7379 92.3773 37.2959C92.3773 38.8807 91.2895 40.4588 89.0868 40.4588H85.071Z" fill="#1C7EA1"/>
<path d="M97.6953 34.004H103.191V49.6629H105.809V34.004H111.28V31.5153H97.6953V34.004Z" fill="#1C7EA1"/>
<path d="M127.463 47.1997C125.726 47.1997 124.144 46.4476 123.003 45.2549C121.863 44.0629 121.137 42.4553 121.137 40.6401C121.137 38.7739 121.863 37.1662 123.003 35.9736C124.144 34.7809 125.726 34.0288 127.463 34.0288C130.133 34.0288 132.362 35.4028 133.322 38.1252H135.914C134.877 34.0288 131.611 31.4367 127.463 31.4367C125 31.4367 122.77 32.4997 121.189 34.1329C119.634 35.7923 118.597 38.0735 118.597 40.6394C118.597 43.1543 119.634 45.4355 121.189 47.0949C122.77 48.7543 125 49.7911 127.463 49.7911C131.688 49.7911 135.007 46.9915 136.043 42.8696H133.477C132.543 45.6175 130.21 47.199 127.462 47.199L127.463 47.1997Z" fill="#1C7EA1"/>
<path d="M144.739 31.2822L137.454 49.6629H140.28L142.043 45.0743H149.405L151.142 49.6629H153.942L146.657 31.2822H144.739ZM143.001 42.6111L145.724 35.4558L148.446 42.6111H143.002H143.001Z" fill="#1C7EA1"/>
<path d="M164.771 42.8428C167.887 42.2988 169.465 39.8611 169.465 37.2959C169.465 34.4217 167.498 31.5139 163.556 31.5139H156.941V49.6656H159.54V42.9032H161.494L167.108 49.6656H170.506L164.771 42.8428ZM159.54 40.4588V34.1598H163.556C165.758 34.1598 166.846 35.7379 166.846 37.2959C166.846 38.8807 165.758 40.4588 163.556 40.4588H159.54Z" fill="#1C7EA1"/>
<path d="M188.707 31.5153H182.07V49.6622H184.714V43.6217H188.707C192.621 43.6217 194.591 40.6146 194.591 37.5813C194.591 34.5479 192.621 31.5153 188.707 31.5153ZM188.707 41.0296H184.714V34.1598H188.707C190.91 34.1598 191.999 35.8709 191.999 37.6074C191.999 39.3185 190.91 41.0296 188.707 41.0296Z" fill="#1C7EA1"/>
<path d="M201.876 31.2822L194.591 49.6629H197.417L199.18 45.0743H206.543L208.28 49.6629H211.08L203.795 31.2822H201.876ZM200.14 42.6111L202.862 35.4558L205.584 42.6111H200.14Z" fill="#1C7EA1"/>
<path d="M222.759 42.8428C225.868 42.2988 227.453 39.8611 227.453 37.2959C227.453 34.4217 225.479 31.5139 221.537 31.5139H214.929V49.6656H217.521V42.8965H219.475L225.089 49.6656H228.487L222.759 42.8428ZM217.521 34.1598H221.537C223.746 34.1598 224.834 35.7379 224.834 37.2959C224.834 38.8538 223.793 40.3916 221.671 40.4521H217.521V34.1598Z" fill="#1C7EA1"/>
<path d="M245.714 49.6656H242.343L235.99 41.9496H234.929V49.6656H232.337V31.5139H234.929V39.5052H235.755L241.752 31.5139H244.989L238.065 40.5394L245.714 49.6656Z" fill="#1C7EA1"/>
<path d="M23.2674 31.5153H20.404V49.6622H23.2674V31.5153Z" fill="#1C7EA1"/>
</g>
<defs>
<clipPath id="clip0_31_45">
<rect width="249.913" height="50" fill="white"/>
</clipPath>
</defs>
</svg>
